<?xml version="1.0" encoding="UTF-8" standalone="no"?>
<!-- Created with Inkscape (http://www.inkscape.org/) -->

<svg
   version="1.1"
   id="svg1"
   width="612"
   height="612"
   viewBox="0 0 612 612"
   sodipodi:docname="air.svg"
   inkscape:version="1.4.2 (1:1.4.2+202505120738+ebf0e940d0)"
   xmlns:inkscape="http://www.inkscape.org/namespaces/inkscape"
   xmlns:sodipodi="http://sodipodi.sourceforge.net/DTD/sodipodi-0.dtd"
   xmlns="http://www.w3.org/2000/svg"
   xmlns:svg="http://www.w3.org/2000/svg">
  <defs
     id="defs1" />
  <sodipodi:namedview
     id="namedview1"
     pagecolor="#ffffff"
     bordercolor="#000000"
     borderopacity="0.25"
     inkscape:showpageshadow="2"
     inkscape:pageopacity="0.0"
     inkscape:pagecheckerboard="0"
     inkscape:deskcolor="#d1d1d1"
     inkscape:zoom="0.65360861"
     inkscape:cx="113.2176"
     inkscape:cy="370.25216"
     inkscape:window-width="975"
     inkscape:window-height="1011"
     inkscape:window-x="2880"
     inkscape:window-y="32"
     inkscape:window-maximized="0"
     inkscape:current-layer="g1"
     showguides="false"
     showgrid="false" />
  <g
     inkscape:groupmode="layer"
     inkscape:label="Image"
     id="g1">
    <path
       style="fill:#d7d7d7;fill-opacity:1;stroke:#ff6a6a;stroke-width:0;stroke-linecap:round;stroke-dasharray:none;stroke-opacity:0"
       d="m 209.05309,427.32692 c 10.49069,41.76456 70.62868,42.11182 116.26785,40.39974 50.42102,-1.89126 82.63746,-16.49036 103.42826,-49.79853 25.78437,40.74831 102.83023,15.4048 115.13543,-63.33116 34.53004,17.94215 64.24975,-17.62232 63.01456,-41.58251 -0.89806,-17.42251 -5.89566,-48.76916 -48.00761,-44.7452 1.29629,-88.03203 -76.04672,-127.08556 -134.02415,-89.37717 -15.30835,-46.95353 -66.54805,-73.0178 -124.3279,-75.10315 -79.16157,1.63084 -115.84697,43.31023 -135.1861,98.69557 -36.3029,-9.21902 -69.12322,-15.52922 -99.972363,16.62122 -30.328372,31.60766 -27.829623,59.47348 -19.972345,81.69786 -34.786178,16.73192 -32.615091,102.08537 38.916324,92.79084 14.920751,37.97452 55.409484,45.20876 70.941034,46.7462 16.21279,1.60484 41.27095,2.12686 53.78701,-13.01371 z"
       id="path3-3-3-6-62-9"
       sodipodi:nodetypes="csccsccccsccsc" />
    <path
       id="path44-2-9-6"
       style="fill:#fafafa;fill-opacity:1;stroke:#000000;stroke-width:0;stroke-linecap:round;stroke-dasharray:none"
       d="m 297.26398,104.38862 c -79.44375,1.63085 -116.26104,43.31035 -135.66904,98.69569 -36.43235,-9.21902 -69.368935,-15.52875 -100.328077,16.6217 -28.907089,30.01952 -25.840062,58.22485 -18.930376,79.86636 l 0.321072,0.33163 C 72.015806,222.28045 159.18366,223.24863 176.96047,296.72296 160.18854,184.132 269.69602,61.80572 368.61196,184.91527 253.867,127.80711 202.63718,305.14499 329.7391,294.36097 c 52.02617,-4.41417 69.89024,-62.86054 97.33598,-91.05561 23.31198,-23.94827 66.67495,-20.37881 89.94017,16.84847 -70.47882,-15.28754 -66.08776,46.48853 -58.78313,62.13632 11.61725,24.88638 45.07004,39.79445 75.77995,17.95658 34.84208,-24.77627 65.22891,-4.23165 70.06433,22.6054 l -5.74932,13.29141 c 4.36205,-7.41234 6.7525,-15.46671 6.387,-22.53036 -0.90126,-17.4225 -5.91565,-48.77011 -48.17767,-44.74614 C 557.83728,180.835 480.21793,141.78267 422.0339,179.49105 406.67103,132.53753 355.2498,106.47349 297.26398,104.38814 Z"
       sodipodi:nodetypes="ccsccccsscssccscccc" />
    <path
       style="fill:#c6c6c6;fill-opacity:0;stroke:#000000;stroke-width:17;stroke-linecap:round;stroke-dasharray:none"
       d="m 205.96598,429.22224 c 10.49068,41.76455 70.62867,42.11181 116.26784,40.39973 50.42103,-1.89126 82.63746,-16.49036 103.42827,-49.79853 25.78437,40.74831 102.83023,15.4048 115.13543,-63.33115 34.53004,17.94214 64.24975,-17.62232 63.01456,-41.58252 -0.89807,-17.42251 -5.89567,-48.76916 -48.00762,-44.74519 1.2963,-88.03204 -76.04672,-127.08556 -134.02414,-89.37718 -15.30836,-46.95353 -66.54806,-73.0178 -124.32791,-75.10315 -79.16157,1.63085 -115.84697,43.31023 -135.1861,98.69557 C 125.96341,195.1608 93.143095,188.8506 62.293952,221.00104 31.965581,252.6087 34.46433,280.47453 42.321608,302.6989 7.5354296,319.43071 9.7065168,404.78416 81.237932,395.48974 c 14.920751,37.97453 55.409488,45.20876 70.941028,46.7462 16.2128,1.60484 41.27096,2.12686 53.78702,-13.0137 z"
       id="path3-3-6-6-5-9"
       sodipodi:nodetypes="csccsccccsccsc" />
  </g>
</svg>
