<?xml version="1.0" encoding="UTF-8" standalone="no"?>
<!-- Created with Inkscape (http://www.inkscape.org/) -->

<svg
   version="1.1"
   id="svg1"
   width="612"
   height="612"
   viewBox="0 0 612 612"
   sodipodi:docname="air3.svg"
   inkscape:version="1.4.2 (1:1.4.2+202505120738+ebf0e940d0)"
   xmlns:inkscape="http://www.inkscape.org/namespaces/inkscape"
   xmlns:sodipodi="http://sodipodi.sourceforge.net/DTD/sodipodi-0.dtd"
   xmlns:xlink="http://www.w3.org/1999/xlink"
   xmlns="http://www.w3.org/2000/svg"
   xmlns:svg="http://www.w3.org/2000/svg">
  <defs
     id="defs1">
    <linearGradient
       inkscape:collect="always"
       xlink:href="#linearGradient1"
       id="linearGradient47"
       gradientUnits="userSpaceOnUse"
       gradientTransform="translate(-9.449155,19.18233)"
       x1="310.56223"
       y1="506.23325"
       x2="310.56223"
       y2="255.0506" />
    <linearGradient
       id="linearGradient1"
       inkscape:collect="always">
      <stop
         style="stop-color:#919191;stop-opacity:1;"
         offset="0.30586469"
         id="stop1" />
      <stop
         style="stop-color:#cccccc;stop-opacity:1;"
         offset="1"
         id="stop2" />
    </linearGradient>
  </defs>
  <sodipodi:namedview
     id="namedview1"
     pagecolor="#ffffff"
     bordercolor="#000000"
     borderopacity="0.25"
     inkscape:showpageshadow="2"
     inkscape:pageopacity="0.0"
     inkscape:pagecheckerboard="0"
     inkscape:deskcolor="#d1d1d1"
     inkscape:zoom="0.65360861"
     inkscape:cx="-64.258639"
     inkscape:cy="442.16064"
     inkscape:window-width="1920"
     inkscape:window-height="1011"
     inkscape:window-x="0"
     inkscape:window-y="32"
     inkscape:window-maximized="0"
     inkscape:current-layer="g2"
     showguides="false"
     showgrid="false" />
  <g
     inkscape:groupmode="layer"
     inkscape:label="Image"
     id="g1">
    <g
       id="g2">
      <g
         id="g3"
         transform="translate(-0.26420725,0.81352642)">
        <path
           style="fill:url(#linearGradient47);fill-opacity:1;stroke:#ff6a6a;stroke-width:0;stroke-linecap:round;stroke-dasharray:none;stroke-opacity:0"
           d="m 199.60394,446.50923 c 10.4907,41.7646 70.6287,42.1118 116.2678,40.3998 50.4211,-1.8913 82.6375,-16.4904 103.4283,-49.7986 25.7844,40.7483 102.8302,15.4048 115.1354,-63.3311 34.5301,17.9421 64.2498,-17.6223 63.0146,-41.5825 -0.8981,-17.4225 -5.8957,-48.7692 -48.0076,-44.7452 1.2963,-88.0321 -76.0467,-127.0856 -134.0242,-89.3772 -15.3083,-46.9535 -66.548,-73.0178 -124.3279,-75.1032 -79.1615,1.6309 -115.8469,43.3103 -135.1861,98.6956 -36.3029,-9.219 -69.123195,-15.5292 -99.972295,16.6212 -30.3284,31.6077 -27.8297,59.4735 -19.9724,81.6979 -34.7862,16.7319 -32.6151,102.0854 38.9164,92.7908 14.9207,37.9745 55.409395,45.2088 70.940995,46.7462 16.2128,1.6049 41.2709,2.1269 53.787,-13.0137 z"
           id="path3-3-3-6-62-9-3"
           sodipodi:nodetypes="csccsccccsccsc" />
        <path
           id="path44-2-9-6-6"
           style="fill:#e3e3e3;fill-opacity:1;stroke:#000000;stroke-width:0;stroke-linecap:round;stroke-dasharray:none"
           d="m 291.01234,125.99893 c -79.4438,1.6309 -116.261,43.3104 -135.669,98.6957 -36.4324,-9.219 -69.368995,-15.5287 -100.328095,16.6217 -28.9071,30.0195 -25.8401,58.2249 -18.9304,79.8664 l 0.3211,0.3316 c 29.3582,-77.6235 116.526095,-76.6554 134.302895,-3.181 -16.7719,-112.591 92.7355,-234.9173 191.6515,-111.8077 -114.745,-57.1082 -165.9748,120.2297 -38.8729,109.4457 52.0262,-4.4142 69.8903,-62.8606 97.336,-91.0556 23.312,-23.9483 66.6749,-20.3788 89.9402,16.8484 -70.4789,-15.2875 -66.0878,46.4886 -58.7832,62.1364 11.6173,24.8863 45.0701,39.7944 75.78,17.9565 34.8421,-24.7762 65.2289,-4.2316 70.0643,22.6054 l -5.7493,13.2914 c 4.362,-7.4123 6.7525,-15.4667 6.387,-22.5303 -0.9013,-17.4225 -5.9157,-48.7701 -48.1777,-44.7462 1.3009,-88.032 -76.3185,-127.0843 -134.5025,-89.3759 -15.3629,-46.9536 -66.7841,-73.0176 -124.7699,-75.103 z"
           sodipodi:nodetypes="ccsccccsscssccscccc" />
        <path
           style="fill:#c6c6c6;fill-opacity:0;stroke:#000000;stroke-width:20;stroke-linecap:round;stroke-dasharray:none"
           d="m 199.65604,446.49923 c 10.4906,41.7646 70.6286,42.1118 116.2678,40.3998 50.421,-1.8913 82.6375,-16.4904 103.4283,-49.7986 25.7843,40.7484 102.8302,15.4048 115.1354,-63.3311 34.53,17.9421 64.2497,-17.6223 63.0146,-41.5825 -0.8981,-17.4225 -5.8957,-48.7692 -48.0077,-44.7452 1.2963,-88.0321 -76.0467,-127.0856 -134.0241,-89.3772 -15.3084,-46.9535 -66.5481,-73.0178 -124.3279,-75.1031 -79.1616,1.6308 -115.847,43.3102 -135.1861,98.6955 -36.3029,-9.219 -69.123195,-15.5292 -99.972395,16.6212 -30.3283,31.6077 -27.8296,59.4735 -19.9723,81.6979 -34.7862,16.7318 -32.6151,102.0853 38.9163,92.7908 14.9208,37.9746 55.409495,45.2088 70.940995,46.7462 16.2128,1.6049 41.271,2.1269 53.7871,-13.0137 z"
           id="path3-3-6-6-5-9-7"
           sodipodi:nodetypes="csccsccccsccsc" />
      </g>
    </g>
  </g>
</svg>
