<?xml version="1.0" encoding="UTF-8" standalone="no"?>
<!-- Created with Inkscape (http://www.inkscape.org/) -->

<svg
   version="1.1"
   id="svg1"
   width="1920"
   height="1920"
   viewBox="0 0 1920 1920"
   sodipodi:docname="earth.svg"
   inkscape:version="1.4.2 (1:1.4.2+202505120738+ebf0e940d0)"
   xml:space="preserve"
   xmlns:inkscape="http://www.inkscape.org/namespaces/inkscape"
   xmlns:sodipodi="http://sodipodi.sourceforge.net/DTD/sodipodi-0.dtd"
   xmlns="http://www.w3.org/2000/svg"
   xmlns:svg="http://www.w3.org/2000/svg"><defs
     id="defs1"><linearGradient
       id="swatch22"
       inkscape:swatch="solid"><stop
         style="stop-color:#71c837;stop-opacity:1;"
         offset="0"
         id="stop22" /></linearGradient></defs><sodipodi:namedview
     id="namedview1"
     pagecolor="#ffffff"
     bordercolor="#000000"
     borderopacity="0.25"
     inkscape:showpageshadow="2"
     inkscape:pageopacity="0.0"
     inkscape:pagecheckerboard="0"
     inkscape:deskcolor="#d1d1d1"
     inkscape:zoom="0.32"
     inkscape:cx="242.1875"
     inkscape:cy="762.5"
     inkscape:window-width="1920"
     inkscape:window-height="1043"
     inkscape:window-x="3840"
     inkscape:window-y="0"
     inkscape:window-maximized="0"
     inkscape:current-layer="g1"
     showgrid="false"
     showguides="true"><sodipodi:guide
       position="-2298.097,770.95148"
       orientation="1,0"
       id="guide2"
       inkscape:locked="false" /></sodipodi:namedview><g
     inkscape:groupmode="layer"
     inkscape:label="Image"
     id="g1"><path
       style="fill:#4cbf00;fill-opacity:1;stroke:#000000;stroke-width:40;stroke-linecap:round;stroke-dasharray:none;stroke-opacity:1"
       d="m 876.7188,93.7285 c -65.8366,92.3263 -157.2984,162.5099 -254.2904,219.2924 -11.5578,45.1617 57.3675,109.7654 81.6496,145.389 18.9718,26.5923 51.3027,65.6699 35.9453,102.4204 -15.218,22.3705 -46.7809,6.4744 -61.4202,-8.6268 -52.3605,-51.9136 -85.9025,-119.7302 -111.2082,-188.2123 -43.0084,49.7527 -88.2194,98.821 -125.2601,152.8983 20.2657,52.1227 59.7832,94.4067 94.1071,137.8173 37.72,47.3675 83.7441,88.1007 118.7665,137.4309 11.0098,18.5616 -0.2565,50.0591 -23.5563,50.1227 -48.033,-8.5822 -75.5718,-55.072 -103.4342,-90.4775 -42.4848,-59.1545 -90.3254,-114.4273 -128.6149,-176.5758 -41.7898,59.1653 -74.1224,124.7861 -104.0157,190.6073 -10.8036,14.2724 9.6782,22.3216 16.9506,31.6141 60.8019,57.0684 126.516,109.7564 202.2696,145.6935 47.9596,25.1007 99.0348,43.7339 151.4812,56.5922 20.7824,4.7335 20.3313,33.8018 3.2592,42.738 -31.7049,14.9366 -68.6477,3.3018 -101.5853,-1.3087 -96.0986,-19.788 -180.8478,-75.3575 -249.7288,-143.7001 -17.0044,-16.012 -33.9386,-32.0984 -50.9142,-48.141 -23.2346,83.0515 -24.6944,171.3601 -9.4979,255.9319 8.6766,32.1195 15.9736,66.1233 33.1977,94.759 105.102,38.4267 219.6737,38.1995 329.8784,28.8757 28.1102,-0.7425 57.4986,-13.5188 85.1064,-5.282 16.6321,14.9718 1.4172,41.2049 -17.4554,45.6982 -71.5874,24.4254 -147.2848,37.8839 -223.0938,34.6189 -39.6776,-0.9115 -79.7793,1.6848 -119.1031,-4.65 40.1144,56.6183 93.6636,102.2039 144.3938,149.0266 70.1469,57.7845 160.4283,100.3266 253.3787,88.5189 93.4733,-8.5574 169.2713,-76.1595 215.653,-153.8767 11.20138,-15.6341 38.69858,114.4801 21.40997,322.6491 -5.56342,66.988 -15.17384,150.7753 -17.28854,186.6466 23.8773,2.4825 66.10607,-1.9942 86.73887,-4.1735 -1.112,-60.0884 -4.835,-239.2329 -3.7884,-374.0664 0.8861,-67.142 -0.8014,-105.6085 -1.6411,-137.4916 -0.5714,-21.6979 43.3704,82.3693 218.2323,57.7052 126.9255,-15.2697 228.917,-106.7313 299.8906,-207.5649 25.7675,-36.8471 50.3814,-75.8982 68.7379,-116.5285 -81.5944,21.6625 -162.0773,54.6021 -248.0329,52.9623 -31.7493,-1.3346 -64.8514,4.2085 -95.8902,-3.1948 -21.5249,-13.1567 -13.8273,-55.1468 14.2709,-52.3724 125.5151,-5.1316 250.2025,-39.0012 359.4903,-101.1803 14.3655,-9.0239 8.6919,-30.3275 12.6008,-44.4268 3.4078,-91.165 2.1082,-206.1658 -54.7157,-284.2905 -42.9452,58.3359 -80.2465,122.0801 -132.6888,173.1843 -39.4265,37.0702 -73.8746,82.9605 -123.7641,106.5383 -16.4578,5.4644 -40.6325,18.541 -52.8772,-1.2277 -11.1599,-9.1073 -17.8046,-27.0807 -4.0071,-37.2602 58.726,-48.226 119.2733,-95.6478 165.1696,-157.0509 38.3581,-48.7843 80.2232,-95.7534 112.7521,-148.5899 -24.3118,-44.6899 -60.6073,-82.3836 -93.1744,-121.3761 -14.484,-16.2665 -29.684,-31.8739 -44.537,-47.7999 -28.4519,51.3069 -41.4194,111.4334 -79.026,157.3541 -18.8511,18.9614 -42.7463,41.5024 -72.0526,32.6175 -14.0535,0.341 -27.6731,-12.1681 -20.7458,-26.6411 10.3923,-46.1384 29.0012,-90.2816 58.7601,-127.3665 19.7424,-28.3839 52.2321,-54.9887 58.3986,-80.1291 -38.6275,-46.4044 -88.2031,-80.9624 -139.7928,-115.2455 -7.3398,46.3838 -6.717,96.7836 -34.138,137.4309 -9.7955,19.1324 -25.3994,39.8106 -49.5931,37.7338 -16.2111,1.8119 -43.4796,0.7378 -43.3362,-21.6369 -0.7433,-34.6856 26.534,-61.8366 38.4958,-92.766 13.1346,-30.9049 34.3301,-61.7807 33.993,-96.3082 -59.0886,-44.8547 -124.1347,-82.6281 -187.4294,-121.7234 -36.4368,-22.1182 -72.8875,-44.2135 -109.3373,-66.3101 -7.981,10.9015 -15.9619,21.8031 -23.9428,32.7047 z"
       id="path2-8"
       sodipodi:nodetypes="ccccccccccccccccccccccccccccccscccsccccccccccccccccccccccccccccccc" /><path
       style="fill:none;fill-opacity:1;stroke:#489700;stroke-width:20;stroke-linecap:round;stroke-dasharray:none;stroke-opacity:1"
       d="m 528.71634,480.66504 c 99.09955,145.2656 172.59264,212.41624 172.59264,212.41624"
       id="path3-2"
       sodipodi:nodetypes="cc" /><path
       style="fill:none;fill-opacity:1;stroke:#489700;stroke-width:20;stroke-linecap:round;stroke-dasharray:none;stroke-opacity:1"
       d="m 394.70672,719.96792 c 0,0 41.85195,62.75901 64.06319,89.07939 15.22482,18.04143 36.94503,39.21673 56.17644,51.09493 43.13555,26.64251 126.89149,49.29613 126.89149,49.29613"
       id="path4-7"
       sodipodi:nodetypes="cssc" /><path
       style="fill:none;fill-opacity:1;stroke:#489700;stroke-width:20;stroke-linecap:round;stroke-dasharray:none;stroke-opacity:1"
       d="m 308.55991,1058.1827 c 0,0 98.0497,63.5933 151.16164,76.5769 60.71481,14.8421 185.29491,0 185.29491,0"
       id="path5-9"
       sodipodi:nodetypes="csc" /><path
       style="fill:none;fill-opacity:1;stroke:#489700;stroke-width:20;stroke-linecap:round;stroke-dasharray:none;stroke-opacity:1"
       d="m 537.51468,1401.1508 c -11.83001,-5.0908 29.46539,8.6648 51.78407,12.2223 22.31869,3.5574 47.99429,10.3619 82.08566,7.0185 75.10814,-6.3963 125.87438,-43.5783 164.76836,-88.7201 16.52999,-19.1853 16.61596,-38.5363 16.61596,-38.5363"
       id="path6-5"
       sodipodi:nodetypes="czzsc" /><path
       style="fill:none;fill-opacity:1;stroke:#489700;stroke-width:20;stroke-linecap:round;stroke-dasharray:none;stroke-opacity:1"
       d="m 1307.2484,365.79966 c 0,0 -51.558,107.54411 -81.6763,158.23026 -13.1215,22.08219 -32.3487,55.11584 -32.3487,55.11584"
       id="path8-4"
       sodipodi:nodetypes="csc" /><path
       style="fill:none;fill-opacity:1;stroke:#489700;stroke-width:20;stroke-linecap:round;stroke-dasharray:none;stroke-opacity:1"
       d="m 1482.7372,566.81408 c 0,0 -51.8662,119.45662 -94.3361,159.68688 -30.9329,29.30168 -109.344,52.35635 -109.344,52.35635"
       id="path9-3"
       sodipodi:nodetypes="csc" /><path
       style="fill:none;fill-opacity:1;stroke:#489700;stroke-width:20;stroke-linecap:round;stroke-dasharray:none;stroke-opacity:1"
       d="m 1611.6472,873.5374 c 0,0 -39.7912,57.14011 -95.4189,101.30485 -42.9857,34.12785 -109.8587,53.36685 -141.1748,60.14565 -51.5726,11.1636 -92.1394,5.2637 -92.1394,5.2637"
       id="path10-1"
       sodipodi:nodetypes="cssc" /><path
       style="fill:none;fill-opacity:1;stroke:#489700;stroke-width:20;stroke-linecap:round;stroke-dasharray:none;stroke-opacity:1"
       d="m 1439.9802,1262.9816 c 0,0 -24.2708,17.6205 -64.7402,30.2482 -26.739,8.3433 -58.2617,15.1756 -86.2126,15.8001 -36.6267,0.8183 -60.2163,-13.3817 -75.5178,-22.4542 -22.1309,-13.122 -38.1034,-47.3758 -38.1034,-47.3758"
       id="path11-2"
       sodipodi:nodetypes="csssc" /><path
       style="fill:none;fill-opacity:1;stroke:#489700;stroke-width:20;stroke-linecap:round;stroke-dasharray:none;stroke-opacity:1"
       d="m 912.29732,134.81083 11.47886,157.50888 18.71794,212.28509"
       id="path15-3"
       sodipodi:nodetypes="ccc" /></g></svg>
