<?xml version="1.0" encoding="UTF-8" standalone="no"?>
<!-- Created with Inkscape (http://www.inkscape.org/) -->

<svg
   version="1.1"
   id="svg1"
   width="612"
   height="612"
   viewBox="0 0 612 612"
   sodipodi:docname="fire.svg"
   inkscape:version="1.4.2 (1:1.4.2+202505120738+ebf0e940d0)"
   xmlns:inkscape="http://www.inkscape.org/namespaces/inkscape"
   xmlns:sodipodi="http://sodipodi.sourceforge.net/DTD/sodipodi-0.dtd"
   xmlns="http://www.w3.org/2000/svg"
   xmlns:svg="http://www.w3.org/2000/svg">
  <defs
     id="defs1" />
  <sodipodi:namedview
     id="namedview1"
     pagecolor="#ffffff"
     bordercolor="#000000"
     borderopacity="0.25"
     inkscape:showpageshadow="2"
     inkscape:pageopacity="0.0"
     inkscape:pagecheckerboard="0"
     inkscape:deskcolor="#d1d1d1"
     inkscape:zoom="1.0615549"
     inkscape:cx="338.65418"
     inkscape:cy="338.18317"
     inkscape:window-width="1920"
     inkscape:window-height="1043"
     inkscape:window-x="0"
     inkscape:window-y="0"
     inkscape:window-maximized="0"
     inkscape:current-layer="g1"
     showguides="true" />
  <g
     inkscape:groupmode="layer"
     inkscape:label="Image"
     id="g1">
    <g
       id="g2"
       transform="translate(1.3322096,-12)">
      <path
         style="fill:#ec0000;fill-opacity:1;stroke:#000000;stroke-width:15;stroke-linecap:butt;stroke-linejoin:miter;stroke-dasharray:none"
         d="m 307.82444,104.95484 c 14.9628,45.76836 -9.35739,118.01528 -23.35428,139.55417 -3.25366,5.00687 -7.26722,10.60944 -15.93734,10.93331 -9.04395,0.33782 -22.52243,-14.35976 -23.33302,-37.21599 -33.11745,43.34481 -25.13493,119.91957 -51.8734,122.74777 -14.3128,1.5139 -19.24791,-10.65036 -25.71298,-34.37611 -13.99856,42.44521 -21.73501,60.2348 -14.97503,116.89332 8.07656,66.35276 75.64046,141.78264 162.42528,141.92046 84.01263,0.13343 147.51987,-79.57028 157.00346,-132.36614 3.006,-16.73462 1.78743,-30.12523 0.84121,-57.18977 -1.0438,-29.85577 -27.83296,-87.68634 -51.34582,-127.15891 -4.71922,22.34153 -3.27132,58.91044 -24.47713,42.32104 -20.87507,-31.13673 -18.2725,-70.14652 -22.21134,-105.7284 -8.4601,-34.97912 -35.68051,-64.04816 -67.04961,-80.33475 z"
         id="path5-9-4-1"
         inkscape:label="path5-9-4"
         sodipodi:nodetypes="csscscsssscccc" />
      <path
         style="fill:#ffd205;fill-opacity:1;stroke:#000000;stroke-width:0;stroke-dasharray:none"
         d="m 316.30467,257.41 c 1.83658,17.8633 3.75722,37.01837 -7.18097,52.6561 -8.18722,18.76083 -26.1828,35.45138 -48.22531,28.93239 -12.48993,-10.38585 -25.71246,-19.74189 -35.10548,0.80953 -25.3027,38.76466 -28.81343,89.01424 -18.36753,133.29394 9.64899,42.35545 43.83295,80.18084 88.46487,85.09495 31.98558,2.82315 65.90361,-3.09655 93.71901,-19.51521 42.30617,-46.66675 40.76221,-118.53237 16.36836,-173.33774 -18.24136,-41.50267 -50.32223,-75.22263 -84.08523,-104.65166 l -2.67451,-1.8677 z"
         id="path4-18-2-2" />
      <path
         style="fill:#f70000;fill-opacity:1;stroke:#000000;stroke-width:9;stroke-linecap:round;stroke-dasharray:none"
         d="m 236.67749,52.883672 c -1.13821,7.620789 -0.34169,15.382187 -0.50774,23.064031 0.95712,6.967885 3.15672,13.807178 4.68668,20.710467 2.91178,9.05163 3.75337,18.59966 1.70196,27.8217 -1.96187,8.9146 -5.19168,17.90358 -7.32734,26.58362 4.00601,-3.86572 7.34072,-8.19509 9.64444,-12.98089 2.8429,-4.28424 5.97341,-8.91559 11.06539,-11.48195 2.56307,-0.73599 4.00683,2.15691 5.38171,3.44692 4.60119,5.06632 7.94658,10.83997 10.1489,16.94605 0.79197,1.64209 0.98909,3.79588 1.98253,5.21755 1.08764,-8.27972 3.22335,-16.6784 1.92418,-25.04528 -1.70728,-7.01761 -3.16798,-14.75313 -9.44498,-20.03478 -7.18396,-6.11083 -14.36844,-12.458521 -18.87471,-20.320136 -4.92916,-7.593614 -8.47226,-15.900376 -9.24012,-24.583342 -0.4855,-3.08239 -0.78893,-6.354019 -1.14121,-9.343979 z"
         id="path9-27-5-6"
         sodipodi:nodetypes="cccccccccccccccc" />
    </g>
  </g>
</svg>
