<?xml version="1.0" encoding="UTF-8" standalone="no"?>
<!-- Created with Inkscape (http://www.inkscape.org/) -->

<svg
   version="1.1"
   id="svg1"
   width="1920"
   height="1920"
   viewBox="0 0 1920 1920"
   sodipodi:docname="leaf.svg"
   inkscape:version="1.4.2 (1:1.4.2+202505120738+ebf0e940d0)"
   xml:space="preserve"
   xmlns:inkscape="http://www.inkscape.org/namespaces/inkscape"
   xmlns:sodipodi="http://sodipodi.sourceforge.net/DTD/sodipodi-0.dtd"
   xmlns:xlink="http://www.w3.org/1999/xlink"
   xmlns="http://www.w3.org/2000/svg"
   xmlns:svg="http://www.w3.org/2000/svg"><defs
     id="defs1"><linearGradient
       id="swatch22"
       inkscape:swatch="solid"><stop
         style="stop-color:#71c837;stop-opacity:1;"
         offset="0"
         id="stop22" /></linearGradient><linearGradient
       inkscape:collect="always"
       xlink:href="#linearGradient2-3"
       id="linearGradient50"
       gradientUnits="userSpaceOnUse"
       gradientTransform="matrix(0.99929456,0,0,0.99929456,19.989316,1.8571058)"
       x1="1025.5459"
       y1="1704.8595"
       x2="938.23962"
       y2="430.09869" /><linearGradient
       id="linearGradient2-3"
       inkscape:collect="always"><stop
         style="stop-color:#00701c;stop-opacity:1;"
         offset="0"
         id="stop2-6" /><stop
         style="stop-color:#56d600;stop-opacity:1;"
         offset="1"
         id="stop3" /></linearGradient></defs><sodipodi:namedview
     id="namedview1"
     pagecolor="#ffffff"
     bordercolor="#000000"
     borderopacity="0.25"
     inkscape:showpageshadow="2"
     inkscape:pageopacity="0.0"
     inkscape:pagecheckerboard="0"
     inkscape:deskcolor="#d1d1d1"
     inkscape:zoom="0.16"
     inkscape:cx="903.125"
     inkscape:cy="1437.5"
     inkscape:window-width="975"
     inkscape:window-height="607"
     inkscape:window-x="0"
     inkscape:window-y="556"
     inkscape:window-maximized="0"
     inkscape:current-layer="g1"
     showgrid="false"
     showguides="true"><sodipodi:guide
       position="-2298.097,770.95148"
       orientation="1,0"
       id="guide2"
       inkscape:locked="false" /></sodipodi:namedview><g
     inkscape:groupmode="layer"
     inkscape:label="Image"
     id="g1"><g
       id="g2"
       transform="translate(-20.840246)"><path
         style="fill:url(#linearGradient50);fill-opacity:1;stroke:#000000;stroke-width:38;stroke-linecap:round;stroke-dasharray:none;stroke-opacity:1"
         d="m 896.0894,95.5191 c -65.79009,92.26108 -157.18729,162.39529 -254.11089,219.13778 -11.54949,45.12982 57.32706,109.68789 81.59236,145.28656 18.95816,26.57357 51.26613,65.6237 35.91957,102.34803 -15.20737,22.35489 -46.74811,6.46973 -61.37685,-8.62098 -52.32362,-51.87635 -85.84171,-119.64568 -111.12979,-188.07934 -42.97825,49.71759 -88.15717,98.75145 -125.17145,152.79063 20.25116,52.08591 59.74074,94.34009 94.04045,137.71994 37.69362,47.33425 83.68482,88.03864 118.68265,137.33398 11.00213,18.54874 -0.25648,50.02379 -23.53967,50.0876 -47.99921,-8.57626 -75.51861,-55.03318 -103.36111,-90.41384 -42.45498,-59.11269 -90.26183,-114.34667 -128.52408,-176.45135 -41.76062,59.12395 -74.07015,124.69823 -103.94255,190.473 -10.79571,14.26217 9.67159,22.30546 16.93857,31.59172 60.75913,57.02805 126.42662,109.67914 202.12695,145.59089 47.92602,25.08289 98.96507,43.70263 151.37439,56.55198 20.76756,4.7301 20.31716,33.7783 3.25692,42.7084 -31.68243,14.9255 -68.59912,3.2991 -101.51356,-1.3084 -96.03094,-19.7739 -180.72008,-75.30403 -249.55253,-143.5985 -16.99237,-16.00057 -33.91469,-32.07558 -50.87829,-48.10712 -23.21845,82.99297 -24.67691,171.23932 -9.49112,255.75172 8.67041,32.0968 15.9621,66.0763 33.17404,94.6916 105.02789,38.3999 219.51874,38.1728 329.64577,28.8556 28.09022,-0.7419 57.45811,-13.5093 85.04664,-5.2784 16.62018,14.9613 1.41593,41.1761 -17.44339,45.6659 -71.53669,24.408 -147.18072,37.8573 -222.93642,34.5947 -39.6494,-0.9111 -79.72291,1.6837 -119.01888,-4.6466 40.08572,56.5783 93.59757,102.1313 144.29163,148.9213 70.09762,57.7437 160.31503,100.2556 253.2001,88.4565 93.40708,-8.5512 169.15214,-76.1056 215.50084,-153.768 11.19355,-15.6234 38.6714,114.3989 21.395,322.4213 -5.55958,66.9405 -15.1633,150.6692 -17.2764,186.5149 23.8606,2.4806 66.0594,-1.9923 86.6774,-4.1705 -1.1112,-60.0461 -4.8314,-239.0644 -3.7858,-373.8026 0.8858,-67.0944 -0.8007,-105.534 -1.6398,-137.3944 -0.5712,-21.683 43.3398,82.3112 218.0784,57.6643 126.8363,-15.2587 228.7555,-106.6562 299.6789,-207.4185 25.7494,-36.821 50.3459,-75.8445 68.6898,-116.4463 -81.537,21.6474 -161.9633,54.5634 -247.8579,52.9251 -31.7272,-1.3337 -64.8058,4.2055 -95.8227,-3.1925 -21.5097,-13.1474 -13.8177,-55.1079 14.261,-52.3355 125.4263,-5.1282 250.026,-38.9738 359.2363,-101.1091 14.3554,-9.01731 8.6858,-30.30626 12.592,-44.39547 3.4055,-91.10037 2.1068,-206.02004 -54.6769,-284.08995 -42.9151,58.29479 -80.1902,121.99399 -132.5955,173.06245 -39.3985,37.04367 -73.8224,82.90163 -123.6764,106.46288 -16.4463,5.46041 -40.604,18.52779 -52.84,-1.2267 -11.1523,-9.10109 -17.7918,-27.06181 -4.0041,-37.23384 58.6842,-48.19188 119.1887,-95.58055 165.0526,-156.94052 38.331,-48.74955 80.1667,-95.68564 112.6724,-148.48498 -24.2944,-44.65816 -60.5643,-82.3252 -93.1084,-121.29025 -14.4739,-16.25516 -29.6628,-31.85163 -44.5055,-47.76619 -28.4318,51.27051 -41.39,111.35467 -78.9701,157.24297 -18.8381,18.94815 -42.7161,41.47318 -72.0021,32.59447 -14.0435,0.34092 -27.6533,-12.15971 -20.731,-26.62237 10.3851,-46.10567 28.981,-90.21773 58.7186,-127.27673 19.7286,-28.36389 52.1954,-54.94967 58.3577,-80.0726 -38.6007,-46.37122 -88.1409,-80.9052 -139.6948,-115.16394 -7.3342,46.3512 -6.7118,96.71529 -34.1136,137.33397 -9.7886,19.11893 -25.3813,39.78233 -49.5581,37.70708 -16.1995,1.81096 -43.4487,0.73752 -43.3057,-21.62174 -0.7425,-34.66097 26.5154,-61.79285 38.469,-92.70022 13.1249,-30.88297 34.3056,-61.73748 33.9688,-96.24019 C 1157.5261,205.91543 1092.5257,168.16864 1029.2757,129.101 992.86443,106.99852 956.43942,84.91857 920.01535,62.837677 912.04024,73.731589 904.06482,84.625501 896.0894,95.5191 Z"
         id="path2-8-2-2-0"
         sodipodi:nodetypes="ccccccccccccccccccccccccccccccscccsccccccccccccccccccccccccccccccc" /><path
         style="fill:none;fill-opacity:1;stroke:#38771a;stroke-width:18;stroke-linecap:round;stroke-dasharray:none;stroke-opacity:1"
         d="m 548.33247,482.18291 c 99.0295,145.16301 172.47098,212.26613 172.47098,212.26613"
         id="path3-2-2-3"
         sodipodi:nodetypes="cc" /><path
         style="fill:none;fill-opacity:1;stroke:#306616;stroke-width:18;stroke-linecap:round;stroke-dasharray:none;stroke-opacity:1"
         d="m 414.41742,721.31663 c 0,0 41.82224,62.71521 64.01823,89.01699 15.21395,18.02859 36.91888,39.18899 56.13664,51.05876 43.10524,26.62362 126.80195,49.26125 126.80195,49.26125"
         id="path4-7-2-8"
         sodipodi:nodetypes="cssc" /><path
         style="fill:none;fill-opacity:1;stroke:#295713;stroke-width:18;stroke-linecap:round;stroke-dasharray:none;stroke-opacity:1"
         d="m 328.33143,1059.2931 c 0,0 97.98047,63.5485 151.05505,76.523 60.67187,14.8314 185.16398,0 185.16398,0"
         id="path5-9-1-6-8"
         sodipodi:nodetypes="csc" /><path
         style="fill:none;fill-opacity:1;stroke:#20440f;stroke-width:18;stroke-linecap:round;stroke-dasharray:none;stroke-opacity:1"
         d="m 543.96208,1386.26 c -11.08721,-6.5348 28.12118,12.2954 49.79922,18.6291 21.67835,6.333 46.27613,16.3077 80.49328,17.2804 75.26276,3.1046 130.2656,-27.3717 174.49995,-67.2316"
         id="path6-5-4-5"
         sodipodi:nodetypes="czzc" /><path
         style="fill:none;fill-opacity:1;stroke:#38771a;stroke-width:18;stroke-linecap:round;stroke-dasharray:none;stroke-opacity:1"
         d="m 1326.3154,367.39836 c 0,0 -51.5217,107.46846 -81.6186,158.11905 -13.1124,22.0665 -32.3258,55.07696 -32.3258,55.07696"
         id="path8-4-0-7"
         sodipodi:nodetypes="csc" /><path
         style="fill:none;fill-opacity:1;stroke:#306616;stroke-width:18;stroke-linecap:round;stroke-dasharray:none;stroke-opacity:1"
         d="m 1501.6805,568.27108 c 0,0 -51.8298,119.37232 -94.2697,159.57439 -30.9111,29.28094 -109.2666,52.31924 -109.2666,52.31924"
         id="path9-3-4-7-7"
         sodipodi:nodetypes="csc" /><path
         style="fill:none;fill-opacity:1;stroke:#295713;stroke-width:18;stroke-linecap:round;stroke-dasharray:none;stroke-opacity:1"
         d="m 1630.4995,874.77816 c 0,0 -39.7632,57.09967 -95.3516,101.23299 -42.9554,34.10395 -109.7814,53.32915 -141.0754,60.10355 -51.536,11.1557 -92.0743,5.2599 -92.0743,5.2599"
         id="path10-1-0-0"
         sodipodi:nodetypes="cssc" /><path
         style="fill:none;fill-opacity:1;stroke:#20440f;stroke-width:18;stroke-linecap:round;stroke-dasharray:none;stroke-opacity:1"
         d="m 1481.1572,1233.4468 c 0,0 -20.7519,21.6252 -58.3185,41.2064 -24.8211,12.9379 -46.122,22.3183 -73.4059,31.5786 -27.9713,9.4933 -57.1315,15.6159 -87.9867,10.5389 -40.9458,-6.7365 -74.3654,-30.7544 -74.3654,-30.7544"
         id="path11-2-3-8"
         sodipodi:nodetypes="csssc" /><path
         style="fill:none;fill-opacity:1;stroke:#53821c;stroke-width:18;stroke-linecap:round;stroke-dasharray:none;stroke-opacity:1"
         d="m 931.64271,136.57285 11.47098,157.39748 18.70481,212.1354"
         id="path15-3-40-9"
         sodipodi:nodetypes="ccc" /></g></g></svg>
