<?xml version="1.0" encoding="UTF-8" standalone="no"?>
<!-- Created with Inkscape (http://www.inkscape.org/) -->

<svg
   version="1.1"
   id="svg1"
   width="307.20001"
   height="307.20001"
   viewBox="0 0 307.20001 307.20001"
   sodipodi:docname="Tile_Flower_Lotus_1.1.svg"
   xml:space="preserve"
   inkscape:version="1.4 (86a8ad7, 2024-10-11)"
   xmlns:inkscape="http://www.inkscape.org/namespaces/inkscape"
   xmlns:sodipodi="http://sodipodi.sourceforge.net/DTD/sodipodi-0.dtd"
   xmlns="http://www.w3.org/2000/svg"
   xmlns:svg="http://www.w3.org/2000/svg"><defs
     id="defs1" /><sodipodi:namedview
     id="namedview1"
     pagecolor="#ffffff"
     bordercolor="#000000"
     borderopacity="0.25"
     inkscape:showpageshadow="2"
     inkscape:pageopacity="0.0"
     inkscape:pagecheckerboard="0"
     inkscape:deskcolor="#d1d1d1"
     inkscape:zoom="0.97940731"
     inkscape:cx="-76.066412"
     inkscape:cy="191.44231"
     inkscape:window-width="1920"
     inkscape:window-height="1111"
     inkscape:window-x="-9"
     inkscape:window-y="-9"
     inkscape:window-maximized="1"
     inkscape:current-layer="g1" /><g
     inkscape:groupmode="layer"
     inkscape:label="Image"
     id="g1"><g
       id="g2"
       transform="translate(408.05346,36.025304)"><path
         style="fill:#1e00c4;fill-opacity:1;stroke:#000000;stroke-width:0"
         d="m -216.17682,187.7791 c -24.65802,4.45183 -50.03738,4.28058 -74.75538,0.36489 -1.24376,-0.28992 -2.94866,-0.39346 -1.7028,1.36409 6.02995,14.76738 20.60064,23.84962 34.26693,30.75202 2.9345,2.04394 6.34196,1.59862 9.10058,-0.505 13.40034,-7.46402 28.79972,-16.43566 33.45094,-31.9991 -0.10842,-0.063 -0.29199,0.17357 -0.36027,0.0231 z"
         id="path4-8" /><path
         style="fill:#000000;stroke-width:0;stroke-dasharray:none"
         d="m -255.26922,229.06858 c -8.14707,-2.92685 -20.78099,-10.42793 -28.02462,-16.63891 -2.13296,-1.82889 -2.13296,-1.82889 -3.81669,-1.15975 -30.95798,12.30337 -67.16926,7.97761 -93.89457,-11.2166 -12.59442,-9.04534 -14.85464,-13.20429 -8.46747,-15.58063 5.96803,-2.22041 10.93085,-5.0374 20.21818,-11.47622 8.75413,-6.06914 12.01884,-8.02211 17.08469,-10.22017 2.735,-1.18671 2.83112,-0.79326 -0.92649,-3.7927 -27.35649,-21.83697 -43.89745,-53.51813 -43.90381,-84.089669 -9.5e-4,-6.167305 0.66932,-6.466065 12.99459,-5.789345 12.78979,0.70222 25.16239,2.768845 37.20285,6.214085 1.58345,0.45309 2.90146,0.79817 2.92891,0.76687 0.0274,-0.0313 0.15823,-1.31023 0.29062,-2.84208 1.06681,-12.344365 4.29997,-24.38782 9.50158,-35.393272 2.53502,-5.363538 2.86557,-5.455803 9.97493,-2.784057 13.63238,5.123109 28.9161,13.498761 37.54589,20.575559 0.80005,0.656064 0.8448,0.636286 1.60232,-0.708042 5.78976,-10.274725 14.22695,-20.71584 23.7162,-29.34909 6.61522,-6.018481 6.8001,-6.044082 11.85269,-1.64113 9.64476,8.404715 18.8726,19.486269 24.86092,29.8551 0.7371,1.276303 1.44214,2.282642 1.56674,2.236313 0.12461,-0.04633 1.33151,-0.893319 2.68201,-1.882192 9.70851,-7.108834 21.43897,-13.56386 32.67957,-17.982878 10.06769,-3.9579 10.29437,-3.920769 13.07492,2.141796 5.26394,11.477265 8.59197,24.203163 9.3376,35.705563 0.0754,1.16306 0.19436,2.11465 0.26438,2.11465 0.0701,0 1.20626,-0.3175 2.52504,-0.70554 13.92303,-4.096935 32.2486,-6.739735 44.94278,-6.481365 5.45457,0.11102 5.69118,0.43501 5.50935,7.544075 -0.51449,20.1157 -8.55965,42.539539 -21.18917,59.059529 -7.07683,9.25683 -14.27619,16.64291 -23.13524,23.73528 -3.02064,2.41825 -3.02064,2.41825 -1.54731,2.98947 4.01451,1.55647 8.37783,4.04485 15.14243,8.63565 9.21154,6.25141 10.30193,6.97517 12.49139,8.29142 3.06786,1.84431 7.1507,3.86124 10.01696,4.94838 5.56805,2.11187 5.90388,4.53912 1.21353,8.77069 -27.48187,24.79382 -67.07499,32.14705 -101.54499,18.8589 -2.89393,-1.11561 -2.89393,-1.11561 -3.82341,-0.30089 -9.30143,8.15296 -27.85805,18.70101 -30.9473,17.5912 z m 5.65021,-10.06483 c 16.89013,-8.35033 27.45354,-18.1338 30.87102,-28.5917 0.33782,-1.03378 0.61424,-1.94295 0.61424,-2.02037 0,-0.0773 -1.50864,0.15961 -3.35252,0.5267 -21.51361,4.28303 -44.99779,4.20911 -66.95753,-0.21077 -1.27071,-0.25576 -2.31038,-0.39622 -2.31038,-0.31213 0,0.0842 0.24125,0.92359 0.53612,1.86556 3.34761,10.69416 15.00129,21.25059 32.67946,29.60253 3.37185,1.59301 2.84189,1.65055 7.91959,-0.85982 z m -64.44799,-8.85713 c 7.12124,-0.83003 12.81665,-2.0755 19.59926,-4.28592 1.75878,-0.57318 3.26219,-1.07969 3.3409,-1.12558 0.0787,-0.0459 -0.62936,-1.23285 -1.57345,-2.6377 -2.83409,-4.21719 -4.78112,-8.69556 -5.56745,-12.8057 -0.65255,-3.41097 -0.21574,-2.94652 -3.73461,-3.97108 -13.24989,-3.8579 -27.0915,-10.05717 -38.01849,-17.02742 -1.52839,-0.97494 -2.43657,-0.91928 -6.43651,0.39458 -5.28067,1.73453 -7.83916,3.23067 -21.80216,12.74936 -4.9506,3.37487 -10.16493,6.4965 -12.5997,7.543 -1.39143,0.59805 -1.39814,0.57643 0.68944,2.21835 14.59177,11.47663 31.29481,17.86312 50.52652,19.31908 2.45542,0.18589 12.94134,-0.0638 15.57625,-0.37097 z m 139.67053,-0.0999 c 16.98727,-2.1114 31.91979,-8.17817 44.85771,-18.22477 2.92051,-2.26785 2.90648,-2.24161 1.51765,-2.83855 -2.42786,-1.04352 -7.64236,-4.16217 -12.54539,-7.50308 -1.68814,-1.15027 -4.58262,-3.12393 -6.4322,-4.38589 -8.37099,-5.71148 -14.05223,-8.50331 -19.06997,-9.3712 -1.47182,-0.25458 -1.47182,-0.25458 -4.33245,1.49355 -11.38364,6.95649 -24.79436,12.78175 -38.23594,16.60863 -1.50388,0.42817 -1.35071,0.16044 -1.98316,3.46627 -0.79462,4.15346 -2.74876,8.64509 -5.58442,12.83587 -0.93801,1.38625 -1.63974,2.55743 -1.55941,2.60262 3.01954,1.69872 16.60723,4.81037 23.97464,5.49032 1.30489,0.12043 2.69746,0.2565 3.09461,0.30236 2.12293,0.24516 13.06752,-0.0745 16.29833,-0.47613 z m -78.2216,-28.44 c 42.3139,-38.22215 46.77815,-95.384269 10.86269,-139.090325 -2.87297,-3.496156 -9.92879,-10.692018 -12.32341,-12.567994 -0.43281,-0.339073 -0.55305,-0.247345 -4.34469,3.31489 -42.91523,40.31872 -43.92908,101.491409 -2.38616,143.973109 6.22318,6.36382 6.07323,6.28381 8.19157,4.37032 z m -24.42878,1.08968 c -0.22026,-0.16661 -0.46008,-0.30586 -0.53295,-0.30947 -0.55082,-0.0272 -9.32375,-5.27637 -13.20202,-7.89914 -31.60045,-21.37043 -50.75312,-52.77745 -52.99402,-86.900849 -0.1265,-1.92616 -0.24776,-3.51988 -0.26948,-3.54157 -0.13709,-0.13694 -5.08019,-1.54111 -9.01389,-2.56054 -11.08732,-2.87337 -20.77208,-4.30961 -33.98925,-5.04057 -2.63121,-0.14554 -2.57494,-0.27195 -2.11032,4.74203 4.60237,49.666049 48.49938,90.870549 107.68845,101.083149 4.83921,0.83498 4.98102,0.84867 4.42348,0.42696 z m 49.73238,-0.4439 c 60.17693,-10.02673 107.50693,-56.33648 107.99952,-105.671469 0.009,-0.91825 -18.62793,1.03928 -28.15833,2.95759 -15.5885,3.1377 -17.31836,3.94671 -17.59962,8.23079 -2.48832,37.901699 -25.94146,72.226619 -63.78888,93.358399 -3.83503,2.14126 -3.96907,2.04384 1.54731,1.12469 z m -4.70893,-8.08608 c 50.19299,-28.00285 71.78161,-80.479409 52.68025,-128.052481 -1.82832,-4.553544 -1.6701,-4.251784 -2.15205,-4.104502 -9.1922,2.809216 -25.59941,11.727893 -35.7466,19.431231 -2.3058,1.750478 -2.3058,1.750478 -1.78635,2.908349 16.44766,36.661973 10.469,77.343203 -16.17317,110.048843 -2.49332,3.06078 -2.75765,3.08004 3.17792,-0.23144 z m -40.16584,1.86997 c -27.55636,-32.71095 -34.15722,-73.28572 -18.00633,-110.682747 0.52646,-1.219002 0.91786,-2.250818 0.8698,-2.292915 -6.97345,-6.106966 -22.14815,-14.793461 -34.6658,-19.843853 -4.04511,-1.632047 -3.56492,-1.813468 -5.09819,1.926217 -19.91292,48.568269 1.95278,101.308408 53.80868,129.786718 3.86913,2.12486 3.98436,2.1661 3.09184,1.10662 z"
         id="path56-2" /><path
         style="fill:#5537ff;fill-opacity:1;stroke:#000000;stroke-width:0"
         d="m -327.40447,39.527857 c -3.08743,1.486595 -2.78281,6.190353 -4.37537,8.818214 -6.6067,17.272033 -6.81549,36.48477 -2.7233,54.335949 8.25399,32.60084 33.46903,59.46104 63.47698,74.96009 -6.31408,-9.13483 -12.96153,-18.3042 -17.28982,-28.60225 -7.50192,-15.7905 -10.23719,-33.33423 -8.98868,-50.621779 0.0195,-12.96886 5.43726,-25.04247 8.95813,-37.279896 -4.01322,-5.229146 -10.83088,-7.904961 -16.40984,-11.35258 -7.36742,-3.573225 -14.62853,-8.308101 -22.6481,-10.257748 z"
         id="path2-4" /><path
         style="fill:#4625ff;fill-opacity:1;stroke:#000000;stroke-width:0"
         d="m -389.1114,75.261591 c -3.41821,-0.0234 -1.40005,4.58127 -1.55747,6.43062 4.25839,35.946269 29.87095,66.943939 61.91875,84.566649 16.92802,9.32811 35.64927,16.22632 54.94278,18.91639 -1.11332,-2.15201 -5.19408,-3.32192 -7.27636,-5.01549 -28.77974,-18.02552 -52.57597,-45.88548 -59.14359,-78.92513 -1.64855,-6.015269 -1.1174,-12.719779 -3.49238,-18.436539 -13.5322,-4.27849 -27.88816,-6.10328 -42.03799,-7.44906 -1.11702,-0.043 -2.23509,-0.12247 -3.35374,-0.0874 z"
         id="path3-5" /><path
         style="fill:#5537ff;fill-opacity:1;stroke:#000000;stroke-width:0"
         d="m -181.50277,39.763655 c -13.3034,4.647395 -25.68054,11.887177 -37.17884,19.815257 -3.76848,2.247733 0.5204,6.51429 0.73659,9.465417 6.11784,14.627252 7.57857,30.567472 6.36135,46.203061 -1.12122,22.57369 -11.66403,43.83376 -25.51721,61.62656 -1.36732,1.99532 2.63116,-0.65512 3.10419,-0.83565 31.75398,-17.40116 57.17783,-48.23327 61.63112,-84.058079 2.2535,-17.52796 -0.5096,-35.747642 -7.98819,-51.799497 -0.28425,-0.317618 -0.71985,-0.475982 -1.14901,-0.417069 z"
         id="path6-5" /><path
         style="fill:#4625ff;fill-opacity:1;stroke:#000000;stroke-width:0"
         d="m -120.78782,73.638611 c -14.13323,1.63796 -28.67743,2.74608 -42.07924,7.60791 -5.20092,3.05637 -2.29704,10.048 -4.23392,14.70551 -6.07353,37.210589 -33.10578,68.649239 -66.15212,87.323059 -1.15025,0.40363 -3.26908,2.30887 -0.63625,1.61443 41.56838,-7.13832 81.2898,-29.97004 103.23305,-65.39483 8.65609,-13.96824 13.84447,-30.029679 14.31446,-46.317349 -1.482,0.15374 -2.96399,0.3075 -4.44598,0.46127 z"
         id="path7-1" /><path
         style="fill:#2400f3;fill-opacity:1;stroke:#000000;stroke-width:0;stroke-dasharray:none"
         d="m -345.09834,167.61252 c -10.61351,3.30144 -19.20289,10.87821 -28.67461,16.44371 -2.95729,2.15668 -6.65715,3.70145 -9.47899,5.77091 15.76988,13.21571 36.23281,20.74945 56.77139,21.33109 12.4077,0.12512 25.0984,-1.41206 36.626,-5.98077 -3.17683,-5.68587 -6.11344,-11.55081 -7.61817,-17.9277 -3.01598,-2.59683 -7.5038,-2.80033 -11.05703,-4.45436 -11.75525,-3.95435 -22.87499,-9.55893 -33.45377,-15.9974 -1.03827,0.27151 -2.07654,0.54301 -3.11482,0.81452 z"
         id="path109-7" /><path
         style="fill:#2400f3;fill-opacity:1;stroke:#000000;stroke-width:0"
         d="m -179.31227,173.18624 c -10.32439,5.21594 -21.02284,9.6677 -32.04864,13.17434 -1.8713,6.54195 -4.4217,13.13482 -8.05684,18.75512 16.63803,5.97398 34.90948,7.09712 52.29629,4.03391 14.88822,-3.31003 29.78092,-9.25617 41.22011,-19.46229 -9.99128,-6.54733 -20.02993,-13.26999 -30.34462,-19.3687 -4.39159,-1.94789 -9.67455,-5.49173 -14.02477,-1.70753 -3.01384,1.52505 -6.02769,3.05011 -9.04153,4.57515 z"
         id="path5-1" /><path
         style="fill:#6246ff;fill-opacity:1;stroke:#000000;stroke-width:7;stroke-dasharray:none"
         d="m -262.41214,19.375826 c -28.26789,27.57847 -42.52662,69.372965 -34.36115,108.309984 5.34636,28.26771 20.77769,37.33069 41.42794,56.90387 18.4818,-17.36986 35.34013,-22.6392 42.03539,-47.42184 5.07907,-17.45117 5.18595,-36.24865 2.02239,-54.056909 -5.84822,-28.006375 -22.14445,-52.809665 -42.82432,-72.213865 -2.76674,2.82626 -5.5335,5.65251 -8.30025,8.47876 z"
         id="path1-1"
         sodipodi:nodetypes="ccccccc" /></g></g></svg>
