<?xml version="1.0" encoding="UTF-8" standalone="no"?>
<!-- Created with Inkscape (http://www.inkscape.org/) -->

<svg
   version="1.1"
   id="svg1"
   width="307.20001"
   height="307.20001"
   viewBox="0 0 307.20001 307.20001"
   sodipodi:docname="lotus.svg"
   xml:space="preserve"
   inkscape:version="1.4 (1:1.4+202410161351+e7c3feb100)"
   xmlns:inkscape="http://www.inkscape.org/namespaces/inkscape"
   xmlns:sodipodi="http://sodipodi.sourceforge.net/DTD/sodipodi-0.dtd"
   xmlns="http://www.w3.org/2000/svg"
   xmlns:svg="http://www.w3.org/2000/svg"><defs
     id="defs1" /><sodipodi:namedview
     id="namedview1"
     pagecolor="#ffffff"
     bordercolor="#000000"
     borderopacity="0.25"
     inkscape:showpageshadow="2"
     inkscape:pageopacity="0.0"
     inkscape:pagecheckerboard="0"
     inkscape:deskcolor="#d1d1d1"
     inkscape:zoom="0.97940731"
     inkscape:cx="150.09077"
     inkscape:cy="150.09077"
     inkscape:window-width="1920"
     inkscape:window-height="1043"
     inkscape:window-x="3840"
     inkscape:window-y="0"
     inkscape:window-maximized="0"
     inkscape:current-layer="g1" /><g
     inkscape:groupmode="layer"
     inkscape:label="Image"
     id="g1"><g
       id="g16"><path
         style="fill:#000000;stroke-width:0.959186"
         d="m 152.78424,257.67845 c -8.14707,-2.92685 -20.78099,-10.42793 -28.02462,-16.63891 -2.13296,-1.82889 -2.13296,-1.82889 -3.81669,-1.15975 -30.957982,12.30337 -67.169263,7.97761 -93.894567,-11.2166 -12.594421,-9.04534 -14.854647,-13.20429 -8.467474,-15.58063 5.968026,-2.22041 10.930855,-5.0374 20.218185,-11.47622 8.754126,-6.06914 12.018833,-8.02211 17.084688,-10.22017 2.734995,-1.18671 2.831114,-0.79326 -0.926488,-3.7927 -27.356498,-21.83697 -43.897451,-53.51813 -43.90381,-84.08967 -9.59e-4,-6.167305 0.669311,-6.466065 12.994584,-5.789345 12.789788,0.70222 25.162388,2.768845 37.20285,6.214085 1.583453,0.45309 2.90146,0.79817 2.928913,0.76687 0.02744,-0.0313 0.158228,-1.31023 0.290614,-2.84208 1.066816,-12.344365 4.299973,-24.38782 9.501582,-35.393272 2.535025,-5.363538 2.865569,-5.455803 9.974933,-2.784057 13.632377,5.123109 28.9161,13.498761 37.54589,20.575559 0.80005,0.656064 0.8448,0.636286 1.60232,-0.708042 5.78976,-10.274725 14.22695,-20.71584 23.7162,-29.34909 6.61522,-6.018481 6.8001,-6.044082 11.85269,-1.64113 9.64476,8.404715 18.8726,19.486269 24.86092,29.8551 0.7371,1.276303 1.44214,2.282642 1.56674,2.236313 0.12461,-0.04633 1.33151,-0.893319 2.68201,-1.882192 9.70851,-7.108834 21.43897,-13.56386 32.67957,-17.982878 10.06769,-3.9579 10.29437,-3.920769 13.07492,2.141796 5.26394,11.477265 8.59197,24.203163 9.3376,35.705563 0.0754,1.16306 0.19436,2.11465 0.26438,2.11465 0.0701,0 1.20626,-0.3175 2.52504,-0.70554 13.92303,-4.096935 32.2486,-6.739735 44.94278,-6.481365 5.45457,0.11102 5.69118,0.43501 5.50935,7.544075 -0.51449,20.1157 -8.55965,42.53954 -21.18917,59.05953 -7.07683,9.25683 -14.27619,16.64291 -23.13524,23.73528 -3.02064,2.41825 -3.02064,2.41825 -1.54731,2.98947 4.01451,1.55647 8.37783,4.04485 15.14243,8.63565 9.21154,6.25141 10.30193,6.97517 12.49139,8.29142 3.06786,1.84431 7.1507,3.86124 10.01696,4.94838 5.56805,2.11187 5.90388,4.53912 1.21353,8.77069 -27.48187,24.79382 -67.07499,32.14705 -101.54499,18.8589 -2.89393,-1.11561 -2.89393,-1.11561 -3.82341,-0.30089 -9.30143,8.15296 -27.85805,18.70101 -30.9473,17.5912 z m 5.65021,-10.06483 c 16.89013,-8.35033 27.45354,-18.1338 30.87102,-28.5917 0.33782,-1.03378 0.61424,-1.94295 0.61424,-2.02037 0,-0.0773 -1.50864,0.15961 -3.35252,0.5267 -21.51361,4.28303 -44.99779,4.20911 -66.95753,-0.21077 -1.27071,-0.25576 -2.31038,-0.39622 -2.31038,-0.31213 0,0.0842 0.24125,0.92359 0.53612,1.86556 3.34761,10.69416 15.00129,21.25059 32.67946,29.60253 3.37185,1.59301 2.84189,1.65055 7.91959,-0.85982 z m -64.447988,-8.85713 c 7.121238,-0.83003 12.816648,-2.0755 19.599258,-4.28592 1.75878,-0.57318 3.26219,-1.07969 3.3409,-1.12558 0.0787,-0.0459 -0.62936,-1.23285 -1.57345,-2.6377 -2.83409,-4.21719 -4.78112,-8.69556 -5.56745,-12.8057 -0.65255,-3.41097 -0.21574,-2.94652 -3.73461,-3.97108 -13.249894,-3.8579 -27.091498,-10.05717 -38.018489,-17.02742 -1.528396,-0.97494 -2.436572,-0.91928 -6.436513,0.39458 -5.280664,1.73453 -7.83916,3.23067 -21.802156,12.74936 -4.950599,3.37487 -10.164928,6.4965 -12.599707,7.543 -1.391424,0.59805 -1.398138,0.57643 0.689444,2.21835 14.591773,11.47663 31.29481,17.86312 50.526521,19.31908 2.45542,0.18589 12.941339,-0.0638 15.576252,-0.37097 z m 139.670528,-0.0999 c 16.98727,-2.1114 31.91979,-8.17817 44.85771,-18.22477 2.92051,-2.26785 2.90648,-2.24161 1.51765,-2.83855 -2.42786,-1.04352 -7.64236,-4.16217 -12.54539,-7.50308 -1.68814,-1.15027 -4.58262,-3.12393 -6.4322,-4.38589 -8.37099,-5.71148 -14.05223,-8.50331 -19.06997,-9.3712 -1.47182,-0.25458 -1.47182,-0.25458 -4.33245,1.49355 -11.38364,6.95649 -24.79436,12.78175 -38.23594,16.60863 -1.50388,0.42817 -1.35071,0.16044 -1.98316,3.46627 -0.79462,4.15346 -2.74876,8.64509 -5.58442,12.83587 -0.93801,1.38625 -1.63974,2.55743 -1.55941,2.60262 3.01954,1.69872 16.60723,4.81037 23.97464,5.49032 1.30489,0.12043 2.69746,0.2565 3.09461,0.30236 2.12293,0.24516 13.06752,-0.0745 16.29833,-0.47613 z m -78.2216,-28.44 c 42.3139,-38.22215 46.77815,-95.38427 10.86269,-139.090326 -2.87297,-3.496156 -9.92879,-10.692018 -12.32341,-12.567994 -0.43281,-0.339073 -0.55305,-0.247345 -4.34469,3.31489 -42.91523,40.31872 -43.92908,101.49141 -2.38616,143.97311 6.22318,6.36382 6.07323,6.28381 8.19157,4.37032 z m -24.42878,1.08968 c -0.22026,-0.16661 -0.46008,-0.30586 -0.53295,-0.30947 -0.55082,-0.0272 -9.32375,-5.27637 -13.20202,-7.89914 -31.600449,-21.37043 -50.753123,-52.77745 -52.994022,-86.90085 -0.126497,-1.92616 -0.247757,-3.51988 -0.269482,-3.54157 -0.137087,-0.13694 -5.080187,-1.54111 -9.013885,-2.56054 -11.087319,-2.87337 -20.772077,-4.30961 -33.98925,-5.04057 -2.631211,-0.14554 -2.574945,-0.27195 -2.110324,4.74203 4.602376,49.66605 48.499385,90.87055 107.688453,101.08315 4.83921,0.83498 4.98102,0.84867 4.42348,0.42696 z m 49.73238,-0.4439 c 60.17693,-10.02673 107.50693,-56.33648 107.99952,-105.67147 0.009,-0.91825 -18.62793,1.03928 -28.15833,2.95759 -15.5885,3.1377 -17.31836,3.94671 -17.59962,8.23079 -2.48832,37.9017 -25.94146,72.22662 -63.78888,93.3584 -3.83503,2.14126 -3.96907,2.04384 1.54731,1.12469 z m -4.70893,-8.08608 c 50.19299,-28.00285 71.78161,-80.47941 52.68025,-128.052482 -1.82832,-4.553544 -1.6701,-4.251784 -2.15205,-4.104502 -9.1922,2.809216 -25.59941,11.727893 -35.7466,19.431231 -2.3058,1.750478 -2.3058,1.750478 -1.78635,2.908349 16.44766,36.661974 10.469,77.343204 -16.17317,110.048844 -2.49332,3.06078 -2.75765,3.08004 3.17792,-0.23144 z m -40.16584,1.86997 C 108.30786,171.93531 101.707,131.36054 117.85789,93.963512 c 0.52646,-1.219002 0.91786,-2.250818 0.8698,-2.292915 -6.97345,-6.106966 -22.148153,-14.793461 -34.665802,-19.843853 -4.045108,-1.632047 -3.56492,-1.813468 -5.098189,1.926217 -19.912915,48.568269 1.952778,101.308409 53.808681,129.786719 3.86913,2.12486 3.98436,2.1661 3.09184,1.10662 z"
         id="path56" /><path
         style="fill:#3300b1;fill-opacity:1;stroke:#000000;stroke-width:0;stroke-dasharray:none"
         d="m 63.351452,197.2135 c -10.121254,3.14832 -18.312253,10.37367 -27.344663,15.68104 -2.820127,2.05665 -6.348391,3.52978 -9.039347,5.50325 15.038461,12.60276 34.552301,19.78708 54.138289,20.34174 11.832217,0.11932 23.934319,-1.34657 34.927259,-5.70338 -3.02949,-5.42215 -5.8299,-11.01507 -7.26484,-17.0962 -2.87609,-2.47638 -7.15576,-2.67044 -10.544194,-4.24776 -11.210035,-3.77094 -21.814024,-9.11558 -31.902157,-15.25543 -0.990115,0.25892 -1.980231,0.51783 -2.970347,0.77674 z"
         id="path109" /><path
         style="fill:#7807ff;fill-opacity:1;stroke:#000000;stroke-width:0"
         d="m 146.89354,65.471213 c -22.77751,22.221998 -34.26681,55.898887 -27.6873,87.273307 4.30796,22.77737 17.61473,42.87853 34.25416,58.65008 14.89215,-13.99618 27.60352,-31.04051 32.99838,-51.00971 4.09258,-14.06169 4.1787,-29.2082 1.62959,-43.55762 -4.71234,-22.566799 -17.84341,-42.552633 -34.5067,-58.18802 -2.22937,2.277321 -4.45875,4.554642 -6.68813,6.831963 z"
         id="path1" /><path
         style="fill:#6600e9;fill-opacity:1;stroke:#000000;stroke-width:0"
         d="m 81.402588,71.747593 c -2.849379,1.41391 -2.568245,5.887679 -4.038025,8.387053 -6.097314,16.427525 -6.290005,34.700864 -2.513327,51.679224 7.617595,31.00684 30.888534,56.55372 58.582844,71.29495 -5.82727,-8.68819 -11.96218,-17.40922 -15.95676,-27.20376 -6.92351,-15.01843 -9.44789,-31.70436 -8.29565,-48.14665 0.018,-12.33475 5.01804,-23.81803 8.26745,-35.457114 -3.70379,-4.97347 -9.99581,-7.518453 -15.14462,-10.797502 -6.799381,-3.398514 -13.500652,-7.90188 -20.901912,-9.756201 z"
         id="path2" /><path
         style="fill:#5400d6;fill-opacity:1;stroke:#000000;stroke-width:0"
         d="m 21.110694,105.65782 c -3.128825,-0.0222 -1.281526,4.35787 -1.425617,6.11704 3.897868,34.19333 27.342015,63.67939 56.676584,80.44273 15.49486,8.87322 32.631149,15.43504 50.291219,17.99393 -1.01906,-2.04707 -4.75435,-3.15994 -6.66032,-4.77091 -26.343204,-17.14651 -48.124791,-43.64787 -54.136389,-75.07633 -1.508977,-5.72193 -1.022793,-12.0995 -3.19671,-17.53748 -12.386536,-4.06984 -25.527088,-5.80564 -38.478967,-7.08579 -1.022445,-0.0409 -2.045857,-0.11651 -3.0698,-0.0832 z"
         id="path3" /><path
         style="fill:#3300b1;fill-opacity:1;stroke:#000000;stroke-width:0"
         d="m 188.65806,217.80917 c -22.58403,4.07739 -45.82873,3.92054 -68.46769,0.3342 -1.13915,-0.26553 -2.70065,-0.36036 -1.55958,1.24935 5.52277,13.5253 18.86792,21.84363 31.38473,28.16546 2.68768,1.87203 5.80854,1.46416 8.33513,-0.46252 12.27323,-6.83622 26.37737,-15.05325 30.63737,-29.30764 -0.0993,-0.0577 -0.26743,0.15896 -0.32996,0.0212 z"
         id="path4" /><path
         style="fill:#3300b1;fill-opacity:1;stroke:#000000;stroke-width:0"
         d="m 229.09707,202.90576 c -9.77208,4.93691 -19.89823,9.15052 -30.3342,12.46957 -1.77119,6.19199 -4.18516,12.43217 -7.62585,17.75182 15.74799,5.6544 33.04201,6.71746 49.49872,3.81811 14.09177,-3.13296 28.18779,-8.761 39.01504,-18.42116 -9.45679,-6.19707 -18.95844,-12.5601 -28.72134,-18.33256 -4.15666,-1.84369 -9.15701,-5.19796 -13.27451,-1.61619 -2.85262,1.44347 -5.70524,2.88694 -8.55786,4.33041 z"
         id="path5" /><path
         style="fill:#6600e9;fill-opacity:1;stroke:#000000;stroke-width:0"
         d="m 225.76499,71.582611 c -12.32658,4.430998 -23.79489,11.333673 -34.44889,18.892597 -3.49178,2.143072 0.48218,6.210964 0.6825,9.024678 5.66861,13.946164 7.02209,29.144154 5.89424,44.051704 -1.03888,21.52259 -10.80757,41.79273 -23.64355,58.75704 -1.26691,1.90241 2.43797,-0.62462 2.87627,-0.79674 29.42236,-16.59091 52.97941,-45.98738 57.10571,-80.14408 2.08804,-16.7118 -0.47218,-34.083119 -7.40165,-49.387549 -0.26338,-0.302829 -0.66699,-0.453819 -1.06463,-0.39765 z"
         id="path6" /><path
         style="fill:#5400d6;fill-opacity:1;stroke:#000000;stroke-width:0"
         d="m 284.28861,105.49002 c -12.84255,1.54224 -26.05851,2.58561 -38.23643,7.16333 -4.72596,2.87776 -2.08727,9.46082 -3.84727,13.84616 -5.51887,35.0361 -30.08246,64.63754 -60.1109,82.22012 -1.04521,0.38004 -2.97053,2.17395 -0.57814,1.52009 37.77221,-6.72118 73.86616,-28.21868 93.80547,-61.57333 7.86559,-13.15196 12.58016,-28.27481 13.00723,-43.61069 -1.34666,0.14477 -2.69331,0.28954 -4.03996,0.43432 z"
         id="path7" /></g></g></svg>
