<?xml version="1.0" encoding="UTF-8" standalone="no"?>
<!-- Created with Inkscape (http://www.inkscape.org/) -->

<svg
   version="1.1"
   id="svg1"
   width="1920"
   height="1920"
   viewBox="0 0 1920 1920"
   sodipodi:docname="Tile_Space_Moon_D4.svg"
   inkscape:version="1.4.2 (1:1.4.2+202505120738+ebf0e940d0)"
   xml:space="preserve"
   xmlns:inkscape="http://www.inkscape.org/namespaces/inkscape"
   xmlns:sodipodi="http://sodipodi.sourceforge.net/DTD/sodipodi-0.dtd"
   xmlns="http://www.w3.org/2000/svg"
   xmlns:svg="http://www.w3.org/2000/svg"><defs
     id="defs1"><linearGradient
       id="swatch22"
       inkscape:swatch="solid"><stop
         style="stop-color:#71c837;stop-opacity:1;"
         offset="0"
         id="stop22" /></linearGradient><rect
       x="65.992882"
       y="75.72953"
       width="503.06046"
       height="468.44125"
       id="rect1-8-82-9" /></defs><sodipodi:namedview
     id="namedview1"
     pagecolor="#ffffff"
     bordercolor="#000000"
     borderopacity="0.25"
     inkscape:showpageshadow="2"
     inkscape:pageopacity="0.0"
     inkscape:pagecheckerboard="0"
     inkscape:deskcolor="#d1d1d1"
     inkscape:zoom="0.22627417"
     inkscape:cx="534.7495"
     inkscape:cy="1290.4699"
     inkscape:window-width="975"
     inkscape:window-height="607"
     inkscape:window-x="0"
     inkscape:window-y="556"
     inkscape:window-maximized="0"
     inkscape:current-layer="g1"
     showgrid="false"
     showguides="true"><sodipodi:guide
       position="-2298.097,770.95148"
       orientation="1,0"
       id="guide2"
       inkscape:locked="false" /></sodipodi:namedview><g
     inkscape:groupmode="layer"
     inkscape:label="Image"
     id="g1"><path
       id="path1-1-1-8"
       style="fill:#ffffff;fill-opacity:1;stroke:#b0b0b0;stroke-width:26.4567;stroke-linecap:round;stroke-dasharray:none;stroke-opacity:1;paint-order:markers fill stroke"
       d="M 965.2026,177.4147 C 694.28603,178.94438 443.47053,321.05277 302.31085,552.99947 420.70153,444.95948 581.40024,383.67047 749.42254,382.47538 1100.9425,381.1225 1387.2549,637.99647 1389.2463,956.5137 v 3.27058 c 0,318.52222 -284.6993,576.86302 -636.22225,577.31582 -170.96202,-0.3202 -334.60952,-62.885 -454.15408,-173.6294 140.96201,236.9261 395.6829,382.115 670.75083,382.3227 431.3447,-0.6124 780.6951,-351.5282 780.6944,-784.19272 v -4.44601 C 1747.8706,524.4982 1396.5435,175.5749 965.2029,177.4147 Z"
       sodipodi:nodetypes="scccccccccss" /><rect
       style="fill:#e6e6e6;fill-opacity:1;stroke:#ff6a6a;stroke-width:20;stroke-linecap:round;stroke-dasharray:none;stroke-opacity:0"
       id="rect1-1-89-6-4-7-0-0-3-8"
       width="20.303019"
       height="20.303019"
       x="1522.8687"
       y="450.79114"
       transform="matrix(0.70610388,0.70810826,-0.70610388,0.70810826,0,0)" /><rect
       style="fill:#e6e6e6;fill-opacity:1;stroke:#ff6a6a;stroke-width:20;stroke-linecap:round;stroke-dasharray:none;stroke-opacity:0"
       id="rect1-1-89-6-4-7-0-0-3-8-2"
       width="20.303019"
       height="20.303019"
       x="809.08142"
       y="702.21594"
       transform="matrix(0.70610388,0.70810826,-0.70610388,0.70810826,0,0)" /><rect
       style="fill:#e6e6e6;fill-opacity:1;stroke:#ff6a6a;stroke-width:20;stroke-linecap:round;stroke-dasharray:none;stroke-opacity:0"
       id="rect1-1-89-6-5-2-8-3-8"
       width="20.303019"
       height="20.303019"
       x="1434.6603"
       y="-310.18521"
       transform="matrix(0.70610388,0.70810826,-0.70610388,0.70810826,0,0)" /><rect
       style="fill:#e6e6e6;fill-opacity:1;stroke:#ff6a6a;stroke-width:20;stroke-linecap:round;stroke-dasharray:none;stroke-opacity:0"
       id="rect1-1-89-6-7-6-9-82-9"
       width="20.303019"
       height="20.303019"
       x="1412.5895"
       y="683.28668"
       transform="matrix(0.70610388,0.70810826,-0.70610388,0.70810826,0,0)" /><rect
       style="fill:#e6e6e6;fill-opacity:1;stroke:#ff6a6a;stroke-width:20;stroke-linecap:round;stroke-dasharray:none;stroke-opacity:0"
       id="rect1-1-61-6-6-2-8-8-2"
       width="20.303019"
       height="20.303019"
       x="600.3634"
       y="-512.40735"
       transform="matrix(0.70610388,0.70810826,-0.70610388,0.70810826,0,0)" /><rect
       style="fill:#e6e6e6;fill-opacity:1;stroke:#ff6a6a;stroke-width:20;stroke-linecap:round;stroke-dasharray:none;stroke-opacity:0"
       id="rect1-1-89-6-16-9-2-2"
       width="42.368843"
       height="42.368843"
       x="1508.5447"
       y="-1078.2678"
       transform="matrix(0.7066186,0.70759463,-0.7066186,0.70759463,0,0)" /><rect
       style="fill:#e6e6e6;fill-opacity:1;stroke:#ff6a6a;stroke-width:20;stroke-linecap:round;stroke-dasharray:none;stroke-opacity:0"
       id="rect1-1-89-9-6-8-1-1-8"
       width="20.303019"
       height="20.303019"
       x="960.93054"
       y="-292.23279"
       transform="matrix(0.70610388,0.70810826,-0.70610388,0.70810826,0,0)" /><rect
       style="fill:#e6e6e6;fill-opacity:1;stroke:#ff6a6a;stroke-width:20;stroke-linecap:round;stroke-dasharray:none;stroke-opacity:0"
       id="rect1-1-60-7-1-8-1-8"
       width="20.303019"
       height="20.303019"
       x="935.19183"
       y="-861.56409"
       transform="matrix(0.70610388,0.70810826,-0.70610388,0.70810826,0,0)" /><rect
       style="fill:#e6e6e6;fill-opacity:1;stroke:#ff6a6a;stroke-width:20;stroke-linecap:round;stroke-dasharray:none;stroke-opacity:0"
       id="rect1-1-44-9-2-7-6-5"
       width="20.303019"
       height="20.303019"
       x="1314.2466"
       y="-1201.5391"
       transform="matrix(0.70610388,0.70810826,-0.70610388,0.70810826,0,0)" /><rect
       style="fill:#e6e6e6;fill-opacity:1;stroke:#ff6a6a;stroke-width:20;stroke-linecap:round;stroke-dasharray:none;stroke-opacity:0"
       id="rect1-1-37-1-7-6-4-8"
       width="20.303019"
       height="20.303019"
       x="2041.5039"
       y="-589.88074"
       transform="matrix(0.70610388,0.70810826,-0.70610388,0.70810826,0,0)" /><rect
       style="fill:#e6e6e6;fill-opacity:1;stroke:#ff6a6a;stroke-width:20;stroke-linecap:round;stroke-dasharray:none;stroke-opacity:0"
       id="rect1-1-0-2-5-6-2-1"
       width="20.303019"
       height="20.303019"
       x="304.09106"
       y="118.49159"
       transform="matrix(0.70610388,0.70810826,-0.70610388,0.70810826,0,0)" /><rect
       style="fill:#e6e6e6;fill-opacity:1;stroke:#ff6a6a;stroke-width:20;stroke-linecap:round;stroke-dasharray:none;stroke-opacity:0"
       id="rect1-1-15-7-4-1-9-2"
       width="20.303019"
       height="20.303019"
       x="2114.8601"
       y="462.81723"
       transform="matrix(0.70610388,0.70810826,-0.70610388,0.70810826,0,0)" /><rect
       style="fill:#e6e6e6;fill-opacity:1;stroke:#ff6a6a;stroke-width:20;stroke-linecap:round;stroke-dasharray:none;stroke-opacity:0"
       id="rect1-1-15-7-4-1-9-2-1"
       width="20.303019"
       height="20.303019"
       x="1640.2866"
       y="982.5993"
       transform="matrix(0.70610388,0.70810826,-0.70610388,0.70810826,0,0)" /><rect
       style="fill:#e6e6e6;fill-opacity:1;stroke:#ff6a6a;stroke-width:20;stroke-linecap:round;stroke-dasharray:none;stroke-opacity:0"
       id="rect1-1-15-7-4-1-9-2-2"
       width="20.303019"
       height="20.303019"
       x="876.85999"
       y="-721.28741"
       transform="matrix(0.70610388,0.70810826,-0.70610388,0.70810826,0,0)" /><rect
       style="fill:#e6e6e6;fill-opacity:1;stroke:#ff6a6a;stroke-width:20;stroke-linecap:round;stroke-dasharray:none;stroke-opacity:0"
       id="rect1-1-15-7-4-1-9-2-23"
       width="20.303019"
       height="20.303019"
       x="415.71585"
       y="354.16956"
       transform="matrix(0.70610388,0.70810826,-0.70610388,0.70810826,0,0)" /><rect
       style="fill:#e6e6e6;fill-opacity:1;stroke:#ff6a6a;stroke-width:20;stroke-linecap:round;stroke-dasharray:none;stroke-opacity:0"
       id="rect1-1-15-7-4-1-9-2-8"
       width="20.303019"
       height="20.303019"
       x="787.02319"
       y="300.61023"
       transform="matrix(0.70610388,0.70810826,-0.70610388,0.70810826,0,0)" /><rect
       style="fill:#e6e6e6;fill-opacity:1;stroke:#ff6a6a;stroke-width:20;stroke-linecap:round;stroke-dasharray:none;stroke-opacity:0"
       id="rect1-1-78-9-4-7-3-2"
       width="31.33593"
       height="31.33593"
       x="1534.6689"
       y="897.53052"
       transform="matrix(0.70645186,0.7077611,-0.70645186,0.7077611,0,0)" /><rect
       style="fill:#e6e6e6;fill-opacity:1;stroke:#ff6a6a;stroke-width:20;stroke-linecap:round;stroke-dasharray:none;stroke-opacity:0"
       id="rect1-1-78-9-4-7-3-2-8"
       width="31.33593"
       height="31.33593"
       x="1163.3242"
       y="942.12531"
       transform="matrix(0.70645186,0.7077611,-0.70645186,0.7077611,0,0)" /><rect
       style="fill:#e6e6e6;fill-opacity:1;stroke:#ff6a6a;stroke-width:20;stroke-linecap:round;stroke-dasharray:none;stroke-opacity:0"
       id="rect1-1-98-9-3-2-8-3"
       width="20.303019"
       height="20.303019"
       x="2556.2302"
       y="-40.170345"
       transform="matrix(0.70610388,0.70810826,-0.70610388,0.70810826,0,0)" /><rect
       style="fill:#e6e6e6;fill-opacity:1;stroke:#ff6a6a;stroke-width:20;stroke-linecap:round;stroke-dasharray:none;stroke-opacity:0"
       id="rect1-1-783-2-8-6-8-9"
       width="20.303019"
       height="20.303019"
       x="2377.1309"
       y="-245.63326"
       transform="matrix(0.70610388,0.70810826,-0.70610388,0.70810826,0,0)" /><rect
       style="fill:#e6e6e6;fill-opacity:1;stroke:#ff6a6a;stroke-width:20;stroke-linecap:round;stroke-dasharray:none;stroke-opacity:0"
       id="rect1-1-51-5-4-1-5-4"
       width="31.33593"
       height="31.33593"
       x="1360.8661"
       y="1157.0009"
       transform="matrix(0.70645186,0.7077611,-0.70645186,0.7077611,0,0)" /><g
       id="g3"
       transform="translate(-6.25,-650)"><rect
         style="fill:#e6e6e6;fill-opacity:1;stroke:#ff6a6a;stroke-width:29.689;stroke-linecap:round;stroke-dasharray:none;stroke-opacity:0"
         id="rect1-8-1-3-7-5-1-1"
         width="49.526226"
         height="49.526939"
         x="1474.001"
         y="-2000.3363"
         transform="matrix(-0.97368829,0.22788398,-0.97106932,-0.23879777,0,0)" /><rect
         style="fill:#e6e6e6;fill-opacity:1;stroke:#ff6a6a;stroke-width:41.8332;stroke-linecap:round;stroke-dasharray:none;stroke-opacity:0"
         id="rect1-8-3-9-2-7-7-2-8"
         width="63.517628"
         height="63.51717"
         x="2389.2991"
         y="-1636.2532"
         transform="matrix(0.1095013,0.99398665,-0.12059163,0.9927022,0,0)" /></g><g
       id="g4"
       transform="matrix(1.4071645,0,0,1.3589697,-265.65329,-231.38683)"
       style="stroke-width:0.72314"><rect
         style="fill:#e6e6e6;fill-opacity:1;stroke:#ff6a6a;stroke-width:20.969;stroke-linecap:round;stroke-dasharray:none;stroke-opacity:0"
         id="rect1-8-24-6-3-8-0-0-0"
         width="84.967888"
         height="84.993294"
         x="898.95551"
         y="-1604.3519"
         transform="matrix(-0.97085879,0.23965229,-0.96797198,-0.25105824,0,0)" /><rect
         style="fill:#e6e6e6;fill-opacity:1;stroke:#ff6a6a;stroke-width:31.047;stroke-linecap:round;stroke-dasharray:none;stroke-opacity:0"
         id="rect1-8-3-2-1-1-6-7-7-0"
         width="114.52976"
         height="114.51415"
         x="3001.8125"
         y="-2497.3389"
         transform="matrix(0.10388454,0.99458936,-0.11442076,0.99343238,0,0)" /></g><rect
       style="fill:#e6e6e6;fill-opacity:1;stroke:#ff6a6a;stroke-width:20;stroke-linecap:round;stroke-dasharray:none;stroke-opacity:0"
       id="rect1-1-41-9-8-2-8-8-7-7-3-8"
       width="39.411747"
       height="39.411747"
       x="2521.5352"
       y="47.047688"
       transform="matrix(0.70610388,0.70810826,-0.70610388,0.70810826,0,0)" /><rect
       style="fill:#e6e6e6;fill-opacity:1;stroke:#ff6a6a;stroke-width:20;stroke-linecap:round;stroke-dasharray:none;stroke-opacity:0"
       id="rect1-1-41-9-8-2-8-8-7-7-3-8-8"
       width="44.1059"
       height="44.1059"
       x="2289.2803"
       y="-51.931107"
       transform="matrix(0.70615808,0.70805421,-0.70615808,0.70805421,0,0)" /><rect
       style="fill:#e6e6e6;fill-opacity:1;stroke:#ff6a6a;stroke-width:20;stroke-linecap:round;stroke-dasharray:none;stroke-opacity:0"
       id="rect1-1-41-9-8-2-8-8-7-7-3-8-1"
       width="39.411747"
       height="39.411747"
       x="633.79596"
       y="394.70099"
       transform="matrix(0.70610388,0.70810826,-0.70610388,0.70810826,0,0)" /><rect
       style="fill:#e6e6e6;fill-opacity:1;stroke:#ff6a6a;stroke-width:20;stroke-linecap:round;stroke-dasharray:none;stroke-opacity:0"
       id="rect1-1-41-9-8-1-3-9-0-3-8-1"
       width="32.245972"
       height="32.245972"
       x="1149.1996"
       y="584.58392"
       transform="matrix(0.70610388,0.70810826,-0.70610388,0.70810826,0,0)" /><rect
       style="fill:#e6e6e6;fill-opacity:1;stroke:#ff6a6a;stroke-width:20;stroke-linecap:round;stroke-dasharray:none;stroke-opacity:0"
       id="rect1-1-41-9-8-1-3-6-9-3-2-9"
       width="32.245972"
       height="32.245972"
       x="1566.1316"
       y="-264.9433"
       transform="matrix(0.70610388,0.70810826,-0.70610388,0.70810826,0,0)" /><rect
       style="fill:#e6e6e6;fill-opacity:1;stroke:#ff6a6a;stroke-width:20;stroke-linecap:round;stroke-dasharray:none;stroke-opacity:0"
       id="rect1-1-41-9-8-1-3-0-0-5-5-5"
       width="38.865715"
       height="38.865715"
       x="282.50555"
       y="-32.019058"
       transform="matrix(0.7062099,0.70800253,-0.7062099,0.70800253,0,0)" /><rect
       style="fill:#e6e6e6;fill-opacity:1;stroke:#ff6a6a;stroke-width:20;stroke-linecap:round;stroke-dasharray:none;stroke-opacity:0"
       id="rect1-1-37-0-4-6-9-0-2"
       width="20.303019"
       height="20.303019"
       x="1794.1405"
       y="-822.56256"
       transform="matrix(0.70610388,0.70810826,-0.70610388,0.70810826,0,0)" /><rect
       style="fill:#e6e6e6;fill-opacity:1;stroke:#ff6a6a;stroke-width:20;stroke-linecap:round;stroke-dasharray:none;stroke-opacity:0"
       id="rect1-1-46-6-2-2-0-2-5"
       width="20.303019"
       height="20.303019"
       x="2210.5059"
       y="214.46194"
       transform="matrix(0.70610388,0.70810826,-0.70610388,0.70810826,0,0)" /><rect
       style="fill:#e6e6e6;fill-opacity:1;stroke:#ff6a6a;stroke-width:20;stroke-linecap:round;stroke-dasharray:none;stroke-opacity:0"
       id="rect1-1-46-6-2-2-0-2-5-1"
       width="20.303019"
       height="20.303019"
       x="2288.3604"
       y="357.03485"
       transform="matrix(0.70610388,0.70810826,-0.70610388,0.70810826,0,0)" /><rect
       style="fill:#e6e6e6;fill-opacity:1;stroke:#ff6a6a;stroke-width:20;stroke-linecap:round;stroke-dasharray:none;stroke-opacity:0"
       id="rect1-1-46-6-2-2-0-2-5-1-8"
       width="20.303019"
       height="20.303019"
       x="1736.2861"
       y="71.576172"
       transform="matrix(0.70610388,0.70810826,-0.70610388,0.70810826,0,0)" /><rect
       style="fill:#e6e6e6;fill-opacity:1;stroke:#ff6a6a;stroke-width:20;stroke-linecap:round;stroke-dasharray:none;stroke-opacity:0"
       id="rect1-1-46-6-2-2-0-2-5-2"
       width="20.303019"
       height="20.303019"
       x="1637.376"
       y="884.71313"
       transform="matrix(0.70610388,0.70810826,-0.70610388,0.70810826,0,0)" /><rect
       style="fill:#e6e6e6;fill-opacity:1;stroke:#ff6a6a;stroke-width:20;stroke-linecap:round;stroke-dasharray:none;stroke-opacity:0"
       id="rect1-1-46-6-2-2-0-2-5-23"
       width="20.303019"
       height="20.303019"
       x="1893.8267"
       y="672.39423"
       transform="matrix(0.70610388,0.70810826,-0.70610388,0.70810826,0,0)" /><rect
       style="fill:#e6e6e6;fill-opacity:1;stroke:#ff6a6a;stroke-width:29.689;stroke-linecap:round;stroke-dasharray:none;stroke-opacity:0"
       id="rect1-8-1-3-7-5-1-2-6"
       width="49.526226"
       height="49.526939"
       x="-497.39127"
       y="-1176.9554"
       transform="matrix(-0.97368829,0.22788398,-0.97106932,-0.23879777,0,0)" /><rect
       style="fill:#e6e6e6;fill-opacity:1;stroke:#ff6a6a;stroke-width:41.8332;stroke-linecap:round;stroke-dasharray:none;stroke-opacity:0"
       id="rect1-8-3-9-2-7-7-2-4-7"
       width="63.517628"
       height="63.51717"
       x="6912.6748"
       y="-6816.1001"
       transform="matrix(0.1095013,0.99398665,-0.12059163,0.9927022,0,0)" /><text
       xml:space="preserve"
       style="font-size:400px;text-align:start;writing-mode:lr-tb;direction:ltr;text-anchor:start;fill:#ffffff;fill-opacity:1;stroke:#0089e2;stroke-width:40;stroke-linecap:round;paint-order:markers fill stroke"
       x="-506.25"
       y="568.75"
       id="text5"><tspan
         sodipodi:role="line"
         id="tspan5"
         x="-506.25"
         y="568.75" /></text></g></svg>
