<?xml version="1.0" encoding="UTF-8" standalone="no"?>
<!-- Created with Inkscape (http://www.inkscape.org/) -->

<svg
   version="1.1"
   id="svg1"
   width="133.12"
   height="133.12"
   viewBox="0 0 133.12 133.12"
   sodipodi:docname="rose.svg"
   xml:space="preserve"
   inkscape:version="1.4 (1:1.4+202410161351+e7c3feb100)"
   xmlns:inkscape="http://www.inkscape.org/namespaces/inkscape"
   xmlns:sodipodi="http://sodipodi.sourceforge.net/DTD/sodipodi-0.dtd"
   xmlns="http://www.w3.org/2000/svg"
   xmlns:svg="http://www.w3.org/2000/svg"><defs
     id="defs1"><inkscape:path-effect
       effect="powerclip"
       message=""
       id="path-effect10"
       is_visible="true"
       lpeversion="1"
       inverse="true"
       flatten="false"
       hide_clip="false" /><inkscape:path-effect
       effect="powerclip"
       message=""
       id="path-effect8"
       is_visible="true"
       lpeversion="1"
       inverse="true"
       flatten="false"
       hide_clip="false" /><inkscape:path-effect
       effect="powerclip"
       message=""
       id="path-effect3"
       is_visible="true"
       lpeversion="1"
       inverse="true"
       flatten="false"
       hide_clip="false" /><inkscape:path-effect
       effect="powerclip"
       message=""
       id="path-effect5"
       is_visible="true"
       lpeversion="1"
       inverse="true"
       flatten="false"
       hide_clip="false" /><inkscape:path-effect
       effect="powerclip"
       message=""
       id="path-effect4"
       is_visible="true"
       lpeversion="1"
       inverse="true"
       flatten="false"
       hide_clip="false" /><clipPath
       clipPathUnits="userSpaceOnUse"
       id="clipPath4"><rect
         style="display:none;fill:#1a1a1a;stroke:#000000;stroke-width:0"
         id="rect4"
         width="338.02753"
         height="156.62532"
         x="-42.474667"
         y="108.84133"
         d="M -42.474667,108.84133 H 295.55286 V 265.46665 H -42.474667 Z" /></clipPath><clipPath
       clipPathUnits="userSpaceOnUse"
       id="clipPath5"><rect
         style="display:block;fill:#1a1a1a;stroke:#000000;stroke-width:0"
         id="rect5"
         width="205.29422"
         height="267.67886"
         x="110.27602"
         y="-50.355122" /></clipPath><clipPath
       clipPathUnits="userSpaceOnUse"
       id="clipPath5-4"><rect
         style="display:none;fill:#1a1a1a;stroke:#000000;stroke-width:0"
         id="rect5-5"
         width="205.29422"
         height="267.67886"
         x="110.27602"
         y="-50.355122"
         d="M 110.27602,-50.355122 H 315.57024 V 217.32374 H 110.27602 Z" /><path
         id="lpe_path-effect5-5"
         style="fill:#1a1a1a;stroke:#000000;stroke-width:0"
         class="powerclip"
         d="M 44.212381,27.864955 H 80.849656 V 86.97994 H 44.212381 Z M 110.27602,-50.355122 V 217.32374 H 315.57024 V -50.355122 Z" /></clipPath><inkscape:path-effect
       effect="powerclip"
       message=""
       id="path-effect4-1"
       is_visible="true"
       lpeversion="1"
       inverse="true"
       flatten="false"
       hide_clip="false" /><inkscape:path-effect
       effect="powerclip"
       message=""
       id="path-effect5-7"
       is_visible="true"
       lpeversion="1"
       inverse="true"
       flatten="false"
       hide_clip="false" /><clipPath
       clipPathUnits="userSpaceOnUse"
       id="clipath_lpe_path-effect4"><rect
         style="display:none;fill:#1a1a1a;stroke:#000000;stroke-width:0"
         id="rect1"
         width="205.29422"
         height="267.67886"
         x="110.27602"
         y="-50.355122"
         d="M 110.27602,-50.355122 H 315.57024 V 217.32374 H 110.27602 Z" /></clipPath><clipPath
       clipPathUnits="userSpaceOnUse"
       id="clipath_lpe_path-effect5-7"><rect
         style="display:block;fill:#1a1a1a;stroke:#000000;stroke-width:0"
         id="rect6"
         width="205.29422"
         height="267.67886"
         x="110.27602"
         y="-50.355122" /></clipPath><clipPath
       clipPathUnits="userSpaceOnUse"
       id="clipPath3"><rect
         style="display:none;fill:#9b5f35;stroke:#000000;stroke-width:0.4;stroke-dasharray:none"
         id="rect3"
         width="80.256622"
         height="117.02618"
         x="-150.26019"
         y="-27.930717" /></clipPath><clipPath
       clipPathUnits="userSpaceOnUse"
       id="clipPath7"><rect
         style="display:none;fill:#9b5f35;stroke:#000000;stroke-width:0.4;stroke-dasharray:none"
         id="rect8"
         width="79.195961"
         height="53.386562"
         x="-212.4856"
         y="24.395184" /></clipPath><clipPath
       clipPathUnits="userSpaceOnUse"
       id="clipPath9"><rect
         style="display:block;fill:#9b5f35;stroke:#000000;stroke-width:0.4;stroke-dasharray:none"
         id="rect10"
         width="94.045204"
         height="114.19775"
         x="-154.50284"
         y="-22.627417" /></clipPath></defs><sodipodi:namedview
     id="namedview1"
     pagecolor="#ffffff"
     bordercolor="#000000"
     borderopacity="0.25"
     inkscape:showpageshadow="2"
     inkscape:pageopacity="0.0"
     inkscape:pagecheckerboard="0"
     inkscape:deskcolor="#d1d1d1"
     showguides="true"
     inkscape:zoom="2.8284271"
     inkscape:cx="18.384776"
     inkscape:cy="67.528698"
     inkscape:window-width="1920"
     inkscape:window-height="1043"
     inkscape:window-x="3840"
     inkscape:window-y="0"
     inkscape:window-maximized="0"
     inkscape:current-layer="g1" /><g
     inkscape:groupmode="layer"
     inkscape:label="Image"
     id="g1"><g
       id="g2"><path
         style="fill:#000000;stroke-width:15.74399719;stroke-dasharray:none"
         d="m 66.170869,118.42644 -4.784924,-4.02628 c -2.63172,-2.21441 -5.206838,-5.94703 -5.722462,-8.29466 -0.592103,-2.69581 -3.345706,-5.9659 -7.474055,-8.87583 C 33.824697,87.104541 31.28122,69.811705 40.436551,44.519667 c 2.922551,-8.073694 5.313731,-16.077328 5.313731,-17.785835 0,-16.806769 30.21531,-23.3128207 42.944693,-9.246934 1.487753,1.643888 3.387508,7.350213 4.221717,12.68065 0.834207,5.330435 2.80404,13.790849 4.377426,18.800945 7.390592,23.534057 3.803022,41.259482 -10.140267,50.100917 -2.675938,1.69679 -5.212013,4.86032 -5.748274,7.17045 -0.527815,2.27371 -2.924308,5.78713 -5.325454,7.80759 l -4.3658,3.67355 c -0.177877,29.86946 -5.202224,29.71377 -5.543454,0.70544 z m 7.557885,-8.83803 c 3.841731,-3.84172 2.847545,-4.88018 -5.206274,-5.43826 -5.113949,-0.35441 -7.591669,0.0579 -7.591048,1.26319 0.0019,2.73311 4.430801,6.56085 7.591993,6.56085 1.550756,0 3.893117,-1.07356 5.205329,-2.38578 z M 77.785692,98.10374 C 94.962005,92.36319 100.27934,73.582842 92.03632,47.771997 89.959409,41.268848 88.260153,34.704772 88.260153,33.185228 c 0,-3.022238 -21.085229,6.828339 -31.578044,14.752592 C 46.609066,55.545043 40.059131,72.052674 42.953888,82.536637 46.179319,94.21826 64.676433,102.485 77.785692,98.10374 Z M 47.742503,50.960946 c 2.348201,-3.312301 7.279774,-7.848427 10.959016,-10.08024 7.809898,-4.737485 8.028146,-5.281616 3.03185,-7.558073 -5.490454,-2.501638 -6.739754,-9.166764 -2.379883,-12.697167 6.451445,-5.224076 21.129306,-1.944781 18.773519,4.194331 -1.087279,2.833362 -3.530743,2.734679 -3.530743,-0.142802 0,-2.954154 -9.560487,-3.114943 -11.978477,-0.201633 -4.53451,5.463742 9.831869,9.692147 16.865503,4.963923 7.160446,-4.813487 7.384002,-9.544457 0.585222,-12.385173 -13.129666,-5.485916 -27.248539,-0.906044 -29.12618,9.448004 -0.57508,3.171164 -3.344906,12.16675 -6.155208,19.990264 -5.394245,15.016756 -6.077446,17.930067 -3.122628,13.315088 0.994666,-1.553465 3.729765,-5.534592 6.078009,-8.846893 z"
         id="path9-1"
         sodipodi:nodetypes="csssssssssssccssssssssssscssssscssssscc" /><path
         style="opacity:1;fill:#ff0000;stroke:#000000;stroke-width:0;stroke-dasharray:none"
         d="m 86.999362,32.869681 c -5.503562,1.150301 -10.492048,4.030804 -15.520072,6.4504 -8.27548,4.335687 -16.909132,9.067419 -22.122182,17.127414 -4.524751,6.809054 -7.329141,15.11153 -6.637791,23.323619 0.946739,7.910025 7.778571,13.503596 14.641879,16.523286 8.749353,3.91955 19.776956,3.80047 27.556332,-2.23765 C 92.08163,88.737339 95.55864,79.665325 95.462957,70.918891 95.959477,60.793252 92.718179,51.07355 89.915407,41.481495 89.022946,38.704853 88.604205,35.739287 87.743004,32.992501 87.521359,32.831674 87.25713,32.866591 86.999362,32.869681 Z"
         id="path10" /><path
         style="opacity:1;fill:#ff0000;stroke:#000000;stroke-width:0;stroke-dasharray:none"
         d="m 68.427847,15.069306 c -2.633685,0.03487 -5.435147,0.478055 -8.001675,1.437132 -3.463383,1.29422 -6.49895,3.527883 -8.117102,6.965359 -1.87852,5.369614 -3.069469,10.974245 -5.025524,16.334602 -2.213816,7.070862 -5.036501,14.134506 -6.996802,21.174445 4.840518,-6.407324 8.944463,-13.654398 15.617602,-18.414217 2.710254,-2.322115 6.202401,-3.683092 8.630528,-6.308086 0.67224,-1.296993 -1.444223,-1.70187 -2.168601,-2.280423 -3.498482,-1.31559 -6.171114,-4.828051 -5.730999,-8.659741 0.193925,-4.413445 4.658826,-6.865866 8.590082,-7.314829 4.261427,-0.498855 9.238624,-0.05159 12.43906,3.109001 1.916922,1.857683 0.68749,5.678703 -1.888133,6.074406 -1.742029,-0.630384 -0.942073,-3.181701 -2.763759,-3.775652 -2.934642,-1.278576 -6.553865,-0.919166 -9.349001,0.605547 -1.667267,0.943964 -2.099286,3.432132 -0.444841,4.611562 3.552846,2.726816 8.51151,2.888392 12.726862,1.973678 3.605816,-1.046267 7.067471,-3.621802 8.536921,-7.118072 0.981982,-3.021978 -2.2119,-5.249245 -4.670919,-6.190365 -3.58034,-1.532043 -7.493332,-2.281078 -11.383699,-2.224347 z"
         id="path11"
         sodipodi:nodetypes="csccccccccccccccccc" /><path
         style="opacity:1;fill:#ff0000;stroke:#000000;stroke-width:0;stroke-dasharray:none"
         d="m 87.734451,32.831338 c 0.380499,0.380101 0.32158,1.012602 0.51725,1.489577 -0.136884,-0.445396 -0.0227,-0.981548 -0.272985,-1.381116 -0.06109,-0.04746 -0.210496,-0.110423 -0.244265,-0.108461 z m -1.591164,0.09135 c -1.02679,0.219591 -2.036125,0.543958 -3.028496,0.893501 1.034086,-0.359676 2.087581,-0.662565 3.151927,-0.918554 l -0.07665,0.01556 z m -4.641351,1.496145 c -6.186717,2.489678 -12.106484,5.605567 -17.825818,9.026088 -3.960609,2.446101 -7.987661,4.967706 -11.076981,8.494649 -4.421623,4.997468 -7.582429,11.102492 -9.20403,17.567416 -0.894892,3.52307 -1.21061,7.203253 -0.760573,10.816969 0.528696,3.878708 2.622904,7.413478 5.420276,10.108699 3.913356,3.767436 8.901926,6.297626 14.12565,7.677506 3.950327,1.02013 8.091426,1.38595 12.129626,0.68518 3.794141,-0.63507 7.398414,-2.21587 10.540926,-4.42112 3.623601,-2.685917 6.549833,-6.327664 8.245535,-10.520474 0.848157,-2.017044 1.467116,-4.119429 1.878644,-6.270484 -0.975624,4.872142 -3.084934,9.589357 -6.416898,13.308272 -3.249818,3.644376 -7.585232,6.331956 -12.351202,7.448726 -2.454879,0.62286 -4.9963,0.79039 -7.520894,0.70928 C 64.656215,98.97814 60.686526,97.90182 57.0109,96.28788 53.38815,94.66843 50.01192,92.428933 47.313333,89.500808 44.367058,86.412848 42.42854,82.22528 42.50948,77.910936 c -0.03379,-2.714509 0.196192,-5.436041 0.83881,-8.078154 1.321339,-5.744924 4.011162,-11.141229 7.586864,-15.811593 4.060336,-5.174358 9.648412,-8.852813 15.313258,-12.052679 4.41927,-2.436706 8.932907,-4.704926 13.519669,-6.809011 0.721455,-0.321228 1.448936,-0.62923 2.18496,-0.915578 -0.150369,0.0583 -0.300737,0.116608 -0.451105,0.174912 z m 10.694371,14.396392 c 1.213948,4.371636 2.388611,8.773608 2.985723,13.279248 -0.595389,-4.633278 -1.703617,-9.187436 -3.089448,-13.646639 0.03458,0.122464 0.06915,0.244927 0.103725,0.367391 z m 3.409177,18.063583 c 0.05421,2.438282 0.02636,4.881467 -0.144971,7.31483 0.240452,-2.468426 0.262653,-4.963477 0.140235,-7.444371 l 0.0029,0.07816 z m -0.629377,10.699413 c -4e-5,0.0045 0.0032,-0.01981 0,0 z"
         id="path12" /><path
         style="opacity:1;fill:#ff0000;stroke:#000000;stroke-width:0;stroke-dasharray:none"
         d="m 95.471156,74.2258 c -0.07279,0.03589 -0.03356,0.237449 -0.06376,0.338014 -0.10258,0.988306 -0.248635,1.972168 -0.439659,2.947265 0.11874,0.0056 0.05804,-0.22572 0.108127,-0.310391 0.179165,-0.988713 0.318214,-1.987531 0.420894,-2.98677 l -0.02508,0.01164 z"
         id="path13" /><path
         style="opacity:1;fill:#ff0000;stroke:#000000;stroke-width:0;stroke-dasharray:none"
         d="m 68.587135,14.821128 c -1.832828,0.0061 -3.665799,0.202638 -5.45632,0.615517 -0.6984,0.160959 -1.392645,0.357608 -2.07389,0.587028 1.8e-5,0.05003 -5.7e-5,0.100052 8.1e-5,0.150078 2.213161,-0.737567 4.538437,-1.117445 6.867655,-1.19595 0.580287,-0.01203 1.160961,-0.01678 1.741257,-0.0027 0.655066,0.01934 1.309441,0.06196 1.961767,0.124574 -2.3e-5,-0.04094 1.6e-4,-0.08189 -6.76e-4,-0.122831 -0.908309,-0.09681 -1.822062,-0.149178 -2.733599,-0.155327 -0.10209,-6.71e-4 -0.204183,-7.88e-4 -0.306275,-3.95e-4 z"
         id="path15"
         sodipodi:nodetypes="sccccccccss" /><path
         style="opacity:1;fill:#ff0000;stroke:#000000;stroke-width:0;stroke-dasharray:none"
         d="m 68.712418,15.169197 c -0.765204,0.0016 -1.533212,0.03779 -2.293364,0.107799 -0.571722,0.05267 -1.144281,0.125129 -1.707766,0.216183 -0.389313,0.06292 -0.775781,0.134818 -1.162162,0.216736 -5.88e-4,0.521045 -0.0012,1.042089 -0.0018,1.563133 1.961947,0 3.923894,0 5.885842,0 0,-0.699587 0,-1.399175 0,-2.098762 -0.240185,-0.0037 -0.480335,-0.0056 -0.720787,-0.0051 z"
         id="path16" /><path
         style="opacity:1;fill:#ff0000;stroke:#000000;stroke-width:0;stroke-dasharray:none"
         d="m 60.961121,15.975998 c 0.03614,-0.02905 0.03546,-0.051 0,0 z m -0.04868,0.0984 c -2.003128,0.696107 -3.903997,1.707983 -5.5251,3.080343 -0.352724,0.297333 -0.684467,0.615226 -1.009995,0.941477 v 0.161316 c 0.339277,-0.347732 0.682358,-0.692879 1.055526,-1.004677 1.572782,-1.339512 3.429904,-2.316505 5.375229,-2.994118 0.04811,-0.02021 0.112963,-0.03248 0.151093,-0.05708 -0.01108,-0.04589 -0.0075,-0.09369 -0.0084,-0.140503 -0.01278,0.0044 -0.02555,0.0088 -0.03833,0.01324 z"
         id="path17"
         sodipodi:nodetypes="ccscccccccss" /><path
         style="opacity:1;fill:#55d400;stroke:#000000;stroke-width:0;stroke-dasharray:none"
         d="m 63.980204,104.49505 c -1.192798,-0.16796 -3.439579,0.26289 -2.539784,1.93833 1.392872,2.78676 4.43737,5.12096 7.580682,5.19627 2.676767,-0.63719 5.434705,-2.48955 6.380533,-5.13412 -0.339507,-1.69047 -2.783402,-1.4193 -4.087961,-1.72358 -2.432516,-0.21342 -4.887519,-0.29505 -7.33347,-0.2769 z"
         id="path18" /><path
         style="opacity:1;fill:#55d400;stroke:#000000;stroke-width:0;stroke-dasharray:none"
         d="m 65.460708,104.78024 c -1.156606,0.26033 -3.30638,-0.41279 -3.85456,0.99713 0.753704,2.3467 3.131187,3.95203 5.163122,5.12721 3.312339,0.94264 7.217535,-1.37604 8.218736,-4.5665 -1.156423,-1.41336 -3.485752,-0.98966 -5.125144,-1.3783 -1.460568,-0.12418 -2.931752,-0.19336 -4.402154,-0.17954 z"
         id="path19" /><path
         style="opacity:1;fill:#55d400;stroke:#000000;stroke-width:0;stroke-dasharray:none"
         d="m 65.460708,104.78024 c -1.156606,0.26033 -3.30638,-0.41279 -3.85456,0.99713 0.753704,2.3467 3.131187,3.95203 5.163122,5.12721 3.312339,0.94264 7.217535,-1.37604 8.218736,-4.5665 -1.156423,-1.41336 -3.485752,-0.98966 -5.125144,-1.3783 -1.460568,-0.12418 -2.931752,-0.19336 -4.402154,-0.17954 z"
         id="path20" /><path
         style="opacity:1;fill:#28170b;fill-opacity:1;stroke:#000000;stroke-width:1;stroke-dasharray:none"
         d="m 71.700796,119.82067 c 22.98097,-11.66726 26.684095,-14.35875 26.684095,-14.35875 l -26.873737,19.59373 z"
         id="path22"
         sodipodi:nodetypes="cccc" /><path
         d="M 36.625,101.375 60.902344,124.69531 45.375,118 c 0,0 21.65625,15.08984 21.53125,14.46484 -0.113807,-0.56903 -0.413094,-4.24387 -0.470703,-4.95703 l -0.134766,-3.80273 z"
         style="opacity:1;fill:#28170b;stroke:#000000;stroke-width:1;stroke-dasharray:none"
         id="path25" /></g></g></svg>
