<?xml version="1.0" encoding="UTF-8" standalone="no"?>
<!-- Created with Inkscape (http://www.inkscape.org/) -->

<svg
   version="1.1"
   id="svg1"
   width="133.12"
   height="133.12"
   viewBox="0 0 133.12 133.12"
   sodipodi:docname="rose.svg"
   xml:space="preserve"
   inkscape:version="1.4.2 (1:1.4.2+202505120738+ebf0e940d0)"
   inkscape:export-filename="rose-plain.svg"
   inkscape:export-xdpi="300"
   inkscape:export-ydpi="300"
   xmlns:inkscape="http://www.inkscape.org/namespaces/inkscape"
   xmlns:sodipodi="http://sodipodi.sourceforge.net/DTD/sodipodi-0.dtd"
   xmlns="http://www.w3.org/2000/svg"
   xmlns:svg="http://www.w3.org/2000/svg"><defs
     id="defs1"><inkscape:path-effect
       effect="powerclip"
       message=""
       id="path-effect10"
       is_visible="true"
       lpeversion="1"
       inverse="true"
       flatten="false"
       hide_clip="false" /><inkscape:path-effect
       effect="powerclip"
       message=""
       id="path-effect8"
       is_visible="true"
       lpeversion="1"
       inverse="true"
       flatten="false"
       hide_clip="false" /><inkscape:path-effect
       effect="powerclip"
       message=""
       id="path-effect3"
       is_visible="true"
       lpeversion="1"
       inverse="true"
       flatten="false"
       hide_clip="false" /><inkscape:path-effect
       effect="powerclip"
       message=""
       id="path-effect5"
       is_visible="true"
       lpeversion="1"
       inverse="true"
       flatten="false"
       hide_clip="false" /><inkscape:path-effect
       effect="powerclip"
       message=""
       id="path-effect4"
       is_visible="true"
       lpeversion="1"
       inverse="true"
       flatten="false"
       hide_clip="false" /><clipPath
       clipPathUnits="userSpaceOnUse"
       id="clipPath4"><rect
         style="display:none;fill:#1a1a1a;stroke:#000000;stroke-width:0"
         id="rect4"
         width="338.02753"
         height="156.62532"
         x="-42.474667"
         y="108.84133"
         d="M -42.474667,108.84133 H 295.55286 V 265.46665 H -42.474667 Z" /></clipPath><clipPath
       clipPathUnits="userSpaceOnUse"
       id="clipPath5"><rect
         style="display:block;fill:#1a1a1a;stroke:#000000;stroke-width:0"
         id="rect5"
         width="205.29422"
         height="267.67886"
         x="110.27602"
         y="-50.355122" /></clipPath><clipPath
       clipPathUnits="userSpaceOnUse"
       id="clipPath5-4"><rect
         style="display:none;fill:#1a1a1a;stroke:#000000;stroke-width:0"
         id="rect5-5"
         width="205.29422"
         height="267.67886"
         x="110.27602"
         y="-50.355122"
         d="M 110.27602,-50.355122 H 315.57024 V 217.32374 H 110.27602 Z" /><path
         id="lpe_path-effect5-5"
         style="fill:#1a1a1a;stroke:#000000;stroke-width:0"
         class="powerclip"
         d="M 44.212381,27.864955 H 80.849656 V 86.97994 H 44.212381 Z M 110.27602,-50.355122 V 217.32374 H 315.57024 V -50.355122 Z" /></clipPath><inkscape:path-effect
       effect="powerclip"
       message=""
       id="path-effect4-1"
       is_visible="true"
       lpeversion="1"
       inverse="true"
       flatten="false"
       hide_clip="false" /><inkscape:path-effect
       effect="powerclip"
       message=""
       id="path-effect5-7"
       is_visible="true"
       lpeversion="1"
       inverse="true"
       flatten="false"
       hide_clip="false" /><clipPath
       clipPathUnits="userSpaceOnUse"
       id="clipath_lpe_path-effect4"><rect
         style="display:none;fill:#1a1a1a;stroke:#000000;stroke-width:0"
         id="rect1"
         width="205.29422"
         height="267.67886"
         x="110.27602"
         y="-50.355122"
         d="M 110.27602,-50.355122 H 315.57024 V 217.32374 H 110.27602 Z" /></clipPath><clipPath
       clipPathUnits="userSpaceOnUse"
       id="clipath_lpe_path-effect5-7"><rect
         style="display:block;fill:#1a1a1a;stroke:#000000;stroke-width:0"
         id="rect6"
         width="205.29422"
         height="267.67886"
         x="110.27602"
         y="-50.355122" /></clipPath><clipPath
       clipPathUnits="userSpaceOnUse"
       id="clipPath3"><rect
         style="display:none;fill:#9b5f35;stroke:#000000;stroke-width:0.4;stroke-dasharray:none"
         id="rect3"
         width="80.256622"
         height="117.02618"
         x="-150.26019"
         y="-27.930717" /></clipPath><clipPath
       clipPathUnits="userSpaceOnUse"
       id="clipPath7"><rect
         style="display:none;fill:#9b5f35;stroke:#000000;stroke-width:0.4;stroke-dasharray:none"
         id="rect8"
         width="79.195961"
         height="53.386562"
         x="-212.4856"
         y="24.395184" /></clipPath><clipPath
       clipPathUnits="userSpaceOnUse"
       id="clipPath9"><rect
         style="display:block;fill:#9b5f35;stroke:#000000;stroke-width:0.4;stroke-dasharray:none"
         id="rect10"
         width="94.045204"
         height="114.19775"
         x="-154.50284"
         y="-22.627417" /></clipPath></defs><sodipodi:namedview
     id="namedview1"
     pagecolor="#ffffff"
     bordercolor="#000000"
     borderopacity="0.25"
     inkscape:showpageshadow="2"
     inkscape:pageopacity="0.0"
     inkscape:pagecheckerboard="0"
     inkscape:deskcolor="#d1d1d1"
     showguides="true"
     inkscape:zoom="2"
     inkscape:cx="-103"
     inkscape:cy="103"
     inkscape:window-width="1920"
     inkscape:window-height="1011"
     inkscape:window-x="0"
     inkscape:window-y="32"
     inkscape:window-maximized="0"
     inkscape:current-layer="g1" /><g
     inkscape:groupmode="layer"
     inkscape:label="Image"
     id="g1"><path
       style="fill:#000000;stroke-width:15.744;stroke-dasharray:none"
       d="m 64.670869,118.42644 -4.784924,-4.02628 c -2.63172,-2.21441 -5.206838,-5.94703 -5.722462,-8.29466 -0.592103,-2.69581 -3.345706,-5.9659 -7.474055,-8.87583 C 32.324697,87.104541 29.78122,69.811705 38.936551,44.519667 c 2.922551,-8.073694 5.313731,-16.077328 5.313731,-17.785835 0,-16.806769 30.21531,-23.3128207 42.944693,-9.246934 1.487753,1.643888 3.387508,7.350213 4.221717,12.68065 0.834207,5.330435 2.80404,13.790849 4.377426,18.800945 7.390592,23.534057 3.803022,41.259482 -10.140267,50.100917 -2.675938,1.69679 -5.212013,4.86032 -5.748274,7.17045 -0.527815,2.27371 -2.924308,5.78713 -5.325454,7.80759 l -4.3658,3.67355 c -0.177877,29.86946 -5.202224,29.71377 -5.543454,0.70544 z"
       id="path9-1"
       sodipodi:nodetypes="cssssssssssscc"
       inkscape:label="rose-back" /><path
       style="display:inline;fill:#ff0000;stroke:#000000;stroke-width:0;stroke-dasharray:none"
       d="m 85.499362,32.869681 c -5.503562,1.150301 -10.492048,4.030804 -15.520072,6.4504 -8.27548,4.335687 -16.909132,9.067419 -22.122182,17.127414 -4.524751,6.809054 -7.329141,15.11153 -6.637791,23.323619 0.946739,7.910025 7.778571,13.503596 14.641879,16.523286 8.749353,3.91955 19.776956,3.80047 27.556332,-2.23765 C 90.58163,88.737339 94.05864,79.665325 93.962957,70.918891 94.459477,60.793252 91.218179,51.07355 88.415407,41.481495 87.522946,38.704853 87.104205,35.739287 86.243004,32.992501 86.021359,32.831674 85.75713,32.866591 85.499362,32.869681 Z"
       id="path10" /><path
       style="display:inline;fill:#ff0000;stroke:#000000;stroke-width:0;stroke-dasharray:none"
       d="m 66.927847,15.069306 c -2.633685,0.03487 -5.435147,0.478055 -8.001675,1.437132 -3.463383,1.29422 -6.49895,3.527883 -8.117102,6.965359 -1.87852,5.369614 -3.069469,10.974245 -5.025524,16.334602 -2.213816,7.070862 -5.036501,14.134506 -6.996802,21.174445 4.840518,-6.407324 8.944463,-13.654398 15.617602,-18.414217 2.710254,-2.322115 6.202401,-3.683092 8.630528,-6.308086 0.67224,-1.296993 -1.444223,-1.70187 -2.168601,-2.280423 -3.498482,-1.31559 -6.171114,-4.828051 -5.730999,-8.659741 0.193925,-4.413445 4.658826,-6.865866 8.590082,-7.314829 4.261427,-0.498855 9.238624,-0.05159 12.43906,3.109001 1.916922,1.857683 0.68749,5.678703 -1.888133,6.074406 -1.742029,-0.630384 -0.942073,-3.181701 -2.763759,-3.775652 -2.934642,-1.278576 -6.553865,-0.919166 -9.349001,0.605547 -1.667267,0.943964 -2.099286,3.432132 -0.444841,4.611562 3.552846,2.726816 8.51151,2.888392 12.726862,1.973678 3.605816,-1.046267 7.067471,-3.621802 8.536921,-7.118072 0.981982,-3.021978 -2.2119,-5.249245 -4.670919,-6.190365 -3.58034,-1.532043 -7.493332,-2.281078 -11.383699,-2.224347 z"
       id="path11"
       sodipodi:nodetypes="csccccccccccccccccc" /><path
       style="display:inline;fill:#55d400;stroke:#000000;stroke-width:0;stroke-dasharray:none"
       d="m 62.480204,104.49505 c -1.192798,-0.16796 -3.439579,0.26289 -2.539784,1.93833 1.392872,2.78676 4.43737,5.12096 7.580682,5.19627 2.676767,-0.63719 5.434705,-2.48955 6.380533,-5.13412 -0.339507,-1.69047 -2.783402,-1.4193 -4.087961,-1.72358 -2.432516,-0.21342 -4.887519,-0.29505 -7.33347,-0.2769 z"
       id="path18" /><path
       style="fill:#28170b;fill-opacity:1;stroke:#000000;stroke-width:1;stroke-dasharray:none"
       d="m 70.450796,119.57067 c 22.98097,-11.66726 26.684095,-14.35875 26.684095,-14.35875 l -26.873737,19.59373 z"
       id="path22"
       sodipodi:nodetypes="cccc" /><path
       d="M 35.125,101.375 59.402344,124.69531 43.875,118 c 0,0 21.65625,15.08984 21.53125,14.46484 -0.113807,-0.56903 -0.413094,-4.24387 -0.470703,-4.95703 l -0.134766,-3.80273 z"
       style="fill:#28170b;stroke:#000000;stroke-width:1;stroke-dasharray:none"
       id="path25" /></g></svg>
