<?xml version="1.0" encoding="UTF-8" standalone="no"?>
<!-- Created with Inkscape (http://www.inkscape.org/) -->

<svg
   width="512"
   height="512"
   viewBox="0 0 512 512"
   version="1.1"
   id="svg1"
   inkscape:version="1.4 (1:1.4+202410161351+e7c3feb100)"
   sodipodi:docname="tulip.svg"
   xmlns:inkscape="http://www.inkscape.org/namespaces/inkscape"
   xmlns:sodipodi="http://sodipodi.sourceforge.net/DTD/sodipodi-0.dtd"
   xmlns="http://www.w3.org/2000/svg"
   xmlns:svg="http://www.w3.org/2000/svg">
  <sodipodi:namedview
     id="namedview1"
     pagecolor="#ffffff"
     bordercolor="#000000"
     borderopacity="0.25"
     inkscape:showpageshadow="2"
     inkscape:pageopacity="0.0"
     inkscape:pagecheckerboard="0"
     inkscape:deskcolor="#d1d1d1"
     inkscape:document-units="px"
     inkscape:zoom="1.3175388"
     inkscape:cx="226.1793"
     inkscape:cy="285.38059"
     inkscape:window-width="1920"
     inkscape:window-height="1011"
     inkscape:window-x="1920"
     inkscape:window-y="32"
     inkscape:window-maximized="0"
     inkscape:current-layer="layer1"
     showguides="true" />
  <defs
     id="defs1">
    <inkscape:path-effect
       effect="powerclip"
       message=""
       id="path-effect28"
       is_visible="true"
       lpeversion="1"
       inverse="true"
       flatten="false"
       hide_clip="false" />
    <inkscape:path-effect
       effect="powerclip"
       message=""
       id="path-effect27"
       is_visible="true"
       lpeversion="1"
       inverse="true"
       flatten="false"
       hide_clip="false" />
    <clipPath
       clipPathUnits="userSpaceOnUse"
       id="clipPath26">
      <path
         style="display:block;fill:#000000;fill-opacity:0;stroke:#000000;stroke-width:0.8;stroke-dasharray:none"
         d="M 374.76659,248.19448 245.36605,247.48737 H 122.8598 L 179,59 339,63.5 398,228 Z"
         id="path26" />
    </clipPath>
    <clipPath
       clipPathUnits="userSpaceOnUse"
       id="clipPath27">
      <path
         style="display:block;fill:#000000;fill-opacity:0;stroke:#000000;stroke-width:0.8;stroke-dasharray:none"
         d="M 374.76659,248.19448 245.36605,247.48737 H 122.8598 L 179,59 339,63.5 398,228 Z"
         id="path27" />
    </clipPath>
  </defs>
  <g
     inkscape:label="Layer 1"
     inkscape:groupmode="layer"
     id="layer1">
    <path
       style="fill:#55d400;fill-opacity:1;stroke:#000000;stroke-width:10;stroke-dasharray:none"
       d="m 323.21681,511.44162 c 1.68893,-3.38403 10.70117,-12.69296 13.5171,-18.98325 1.76786,-3.94912 6.09991,-12.58706 7.07184,-18.81132 1.29553,-8.29662 2.1484,-23.80685 2.1484,-37.43949 v -33.67602 c 0,-5.68843 0.3338,-11.51876 0,-17.19627 -0.46271,-7.87022 -1.18179,-15.72447 -0.71613,-23.64488 0.12693,-2.15902 0.59623,-4.28917 0.71613,-6.44859 0.38616,-6.95434 0.39295,-13.84637 1.43228,-20.77884 0.72223,-4.81743 2.1423,-9.51278 2.86453,-14.33021 0.35588,-2.37374 0.22192,-4.81632 0.71614,-7.16512 0.46654,-2.21721 1.5423,-4.26545 2.14841,-6.4486 3.13575,-11.29461 5.96202,-22.6397 10.0259,-33.67603 4.5675,-12.40396 11.22477,-24.46594 17.90339,-35.82556 4.97369,-8.45971 11.16163,-16.1515 16.47113,-24.36139 1.33513,-2.06448 2.29911,-4.35039 3.58067,-6.44859 4.56603,-7.47561 10.31261,-14.13957 15.03884,-21.49534 3.28062,-5.10587 6.4873,-10.0901 10.0259,-15.04674 4.59726,-6.43954 9.53106,-12.54971 13.60658,-19.34581 2.79319,-4.65774 5.13987,-9.6347 7.87749,-14.33022 3.33707,-5.72369 6.89903,-11.33412 10.0259,-17.19626 6.10201,-11.43982 9.19634,-20.195368 13.60657,-30.093478 2.08637,-4.68256 3.80154,-11.1481 5.63956,-15.94191 2.17854,-5.68193 7.55792,-26.27629 7.96702,-24.18272 0.2352,5.48964 0.87228,10.35471 0.89517,15.85313 0.0124,2.97796 0.27397,7.28681 0.53709,10.65778 0.37331,4.78276 0,7.99876 0,11.46418 2.13468,22.047468 -2.08186,53.731338 -6.44521,64.486018 -10.16741,25.06042 -15.15065,34.03439 -20.88181,43.90344 -5.78748,9.96606 -9.42082,15.88653 -16.07184,25.98129 -8.70675,13.21492 -15.9587,24.05794 -19.9116,29.89303 -9.66161,14.26205 -11.71346,25.8201 -18.21497,37.83413 -11.55115,21.3452 -9.24794,40.48486 -12.74378,64.60225 -0.74256,5.12283 -2.46961,24.96675 0.68016,62.17851 1.62031,19.14256 4.48683,38.67575 10.19967,56.60439 4.78204,15.00752 8.78136,25.50276 19.18429,40.1481"
       id="path2-1"
       sodipodi:nodetypes="cssssssssssssssssssssssssssssssssssc"
       inkscape:label="Leaf" />
    <path
       d="m 132.98744,104.09202 v 143.47613 c 0,0 -0.18315,4.55998 -0.27359,6.84515 0,82.26311 54.6512,148.95054 122.06688,148.95054 67.41568,0 122.06688,-66.68743 122.06688,-148.95054 -5e-5,-2.44825 -0.0496,-4.89614 -0.14852,-7.34143 V 104.09202 h -1.34252 l -41.79244,36.59591 -17.51155,15.33485 -52.69015,-48.66014 c -4.97861,-4.35563 -2.05866,-1.97517 -7.30673,-6.64429 -5.73438,5.36732 -5.22311,4.58163 -10.14905,8.92223 l -52.27662,45.05484 -17.52327,-14.00237 -41.79634,-36.60103 z"
       style="fill:#eb30ff;fill-opacity:1;stroke:#000000;stroke-width:13;stroke-dasharray:none"
       id="path9-5"
       sodipodi:nodetypes="cccsscccccccccccc" />
    <path
       d="m 241.50339,403.8998 v 106.22657 h 26.55468 V 403.8998 Z"
       style="fill:#55d400;stroke:#000000;stroke-width:9;stroke-dasharray:none"
       id="path4-2" />
    <rect
       style="fill:#ff52f7;fill-opacity:1;stroke:#000000;stroke-width:13;stroke-dasharray:none"
       id="rect23-7"
       width="39.59798"
       height="39.59798"
       x="210.32687"
       y="-64.698784"
       transform="rotate(45)"
       inkscape:label="rect23" />
    <rect
       style="fill:#ff00ff;fill-opacity:1;stroke:#000000;stroke-width:13;stroke-dasharray:none"
       id="rect23-4-6"
       width="39.59798"
       height="39.59798"
       x="296.63217"
       y="-150.4743"
       transform="rotate(45)" />
    <path
       d="m 71.74908,221.07213 c -0.0624,-0.0378 -0.10723,0.006 -0.13279,0.13876 -0.23517,5.57153 -0.87346,10.50756 -0.89634,16.08799 -0.0124,3.02238 -0.27395,7.39593 -0.53702,10.81718 -0.37325,4.8541 0,8.11873 0,11.63584 -2.13434,22.37632 2.08162,54.53308 6.44425,65.44816 10.16574,25.43421 15.14918,34.54091 20.8794,44.55716 5.78653,10.11471 9.41774,16.12463 16.06767,26.36995 8.70534,13.41203 15.95661,24.41632 19.90886,30.33844 9.66003,14.47477 11.71141,26.20507 18.21185,38.39829 8.50092,15.94563 9.48913,30.70468 10.81659,47.13211 h 46.6369 c -0.0295,-0.21175 -0.0273,-0.4225 -0.0586,-0.63432 -0.72211,-4.88928 -2.1407,-9.65454 -2.86281,-14.54382 -0.35582,-2.40914 -0.22254,-4.88708 -0.71668,-7.27091 -0.46647,-2.25028 -1.54207,-4.3297 -2.14808,-6.54541 -3.13524,-11.46308 -5.96053,-22.97713 -10.02375,-34.17807 -4.56675,-12.58897 -11.22384,-24.83147 -17.90137,-36.36052 -4.97287,-8.58589 -11.15937,-16.39235 -16.468,-24.72469 -1.33491,-2.09527 -2.29814,-4.41592 -3.57949,-6.54541 -4.56529,-7.58711 -10.31114,-14.34925 -15.0366,-21.81473 -3.28008,-5.18203 -6.48573,-10.24073 -10.02375,-15.2713 -4.59651,-6.53559 -9.53034,-12.73679 -13.60519,-19.63426 -2.79274,-4.72721 -5.1385,-9.77827 -7.87567,-14.54381 -3.33652,-5.80907 -6.89739,-11.50419 -10.02375,-17.45377 -6.10101,-11.61044 -9.19569,-20.49687 -13.60519,-30.5426 -2.08603,-4.7524 -3.80003,-11.31387 -5.63775,-16.17918 -2.04205,-5.40626 -6.8968,-24.11442 -7.8327,-24.68108 z"
       style="fill:#55d400;stroke:#000000;stroke-width:10;stroke-dasharray:none"
       id="path3-1"
       sodipodi:nodetypes="scsscssssscccssssssssssssssss" />
  </g>
</svg>
