<?xml version="1.0" encoding="UTF-8" standalone="no"?>
<!-- Created with Inkscape (http://www.inkscape.org/) -->

<svg
   width="512"
   height="512"
   viewBox="0 0 512 512"
   version="1.1"
   id="svg1"
   inkscape:version="1.4 (86a8ad7, 2024-10-11)"
   sodipodi:docname="Tile_Flower_Tulip_1.1.svg"
   xmlns:inkscape="http://www.inkscape.org/namespaces/inkscape"
   xmlns:sodipodi="http://sodipodi.sourceforge.net/DTD/sodipodi-0.dtd"
   xmlns="http://www.w3.org/2000/svg"
   xmlns:svg="http://www.w3.org/2000/svg">
  <sodipodi:namedview
     id="namedview1"
     pagecolor="#ffffff"
     bordercolor="#000000"
     borderopacity="0.25"
     inkscape:showpageshadow="2"
     inkscape:pageopacity="0.0"
     inkscape:pagecheckerboard="0"
     inkscape:deskcolor="#d1d1d1"
     inkscape:document-units="px"
     inkscape:zoom="0.93164062"
     inkscape:cx="94.993711"
     inkscape:cy="323.62264"
     inkscape:window-width="1920"
     inkscape:window-height="1111"
     inkscape:window-x="-9"
     inkscape:window-y="-9"
     inkscape:window-maximized="1"
     inkscape:current-layer="g4"
     showguides="true" />
  <defs
     id="defs1">
    <inkscape:path-effect
       effect="powerclip"
       message=""
       id="path-effect28"
       is_visible="true"
       lpeversion="1"
       inverse="true"
       flatten="false"
       hide_clip="false" />
    <inkscape:path-effect
       effect="powerclip"
       message=""
       id="path-effect27"
       is_visible="true"
       lpeversion="1"
       inverse="true"
       flatten="false"
       hide_clip="false" />
    <clipPath
       clipPathUnits="userSpaceOnUse"
       id="clipPath26">
      <path
         style="display:block;fill:#000000;fill-opacity:0;stroke:#000000;stroke-width:0.8;stroke-dasharray:none"
         d="M 374.76659,248.19448 245.36605,247.48737 H 122.8598 L 179,59 339,63.5 398,228 Z"
         id="path26" />
    </clipPath>
    <clipPath
       clipPathUnits="userSpaceOnUse"
       id="clipPath27">
      <path
         style="display:block;fill:#000000;fill-opacity:0;stroke:#000000;stroke-width:0.8;stroke-dasharray:none"
         d="M 374.76659,248.19448 245.36605,247.48737 H 122.8598 L 179,59 339,63.5 398,228 Z"
         id="path27" />
    </clipPath>
  </defs>
  <g
     inkscape:label="Layer 1"
     inkscape:groupmode="layer"
     id="layer1">
    <g
       id="g4"
       transform="translate(227.89582,107.69119)">
      <path
         style="fill:#55d400;fill-opacity:1;stroke:#000000;stroke-width:10;stroke-dasharray:none"
         d="m 91.467746,404.73288 c 0,-21.47423 6.563796,-22.81079 14.541094,-52.58248 7.9773,-29.7717 6.09847,-61.08221 5.33334,-94.03411 1.19364,-21.80307 3.6223,-43.61832 10.19545,-64.48085 7.08896,-31.69568 23.08706,-60.46875 42.08246,-86.50798 13.45144,-23.056042 30.26865,-44.032357 44.27625,-66.744224 13.74573,-23.975178 27.13978,-48.3705841 35.12526,-74.988795 3.09936,-8.000153 9.26341,-37.988854 8.74574,-12.516325 1.31238,36.190111 4.50994,74.676952 -12.53788,108.076139 -14.47594,35.130361 -38.90473,64.769995 -57.3154,97.672565 -7.55926,20.18277 -20.12589,38.96328 -20.85824,61.1558 -2.73062,27.46405 -5.77767,55.01711 -2.9861,82.63544 2.08009,25.10406 8.60449,40.41348 14.1148,60.97824 3.6633,13.67163 16.28497,30.01246 16.03127,40.82787"
         id="path2-1"
         inkscape:label="Leaf"
         sodipodi:nodetypes="czssssssssssss" />
      <path
         d="m -93.689109,-3.5991684 c 0,49.8652814 0.478082,100.2386834 -0.27359,150.3212784 -1.234519,82.25385 54.651201,148.95054 122.066878,148.95054 67.41568,0 122.066881,-66.68743 122.066881,-148.95054 -5e-5,-2.44825 -0.0496,-4.89614 -0.14852,-7.34143 V -3.5991684 C 145.88777,0.53560465 108.65637,31.448369 89.37603,48.331592 L 36.685881,-0.32855247 C 31.707267,-4.6841826 34.627222,-2.3037157 29.379145,-6.972845 23.64477,-1.6055246 24.156033,-2.3912076 19.230094,1.9493853 L -33.426015,52.696665 C -54.065751,32.056929 -73.698856,16.593874 -93.689109,-3.5991684 Z"
         style="fill:#ff00ff;fill-opacity:1;stroke:#000000;stroke-width:13;stroke-dasharray:none"
         id="path9-5"
         sodipodi:nodetypes="cssscccccccc" />
      <path
         d="M 42.61488,404.362 41.38152,296.20862 H 14.82684 l 1.288446,108.27941"
         style="fill:#55d400;stroke:#000000;stroke-width:9;stroke-dasharray:none"
         id="path4-2"
         sodipodi:nodetypes="cccc" />
      <rect
         style="fill:#d200d2;fill-opacity:1;stroke:#000000;stroke-width:13;stroke-dasharray:none"
         id="rect23-7"
         width="39.59798"
         height="39.59798"
         x="-26.968973"
         y="20.298723"
         transform="rotate(45)"
         inkscape:label="rect23" />
      <rect
         style="fill:#d200d2;fill-opacity:1;stroke:#000000;stroke-width:13;stroke-dasharray:none"
         id="rect23-4-6"
         width="39.59798"
         height="39.59798"
         x="59.336323"
         y="-68.305222"
         transform="rotate(45)" />
      <path
         d="m -14.940145,404.47553 c 0,-21.29148 -7.999679,-41.38823 -14.826156,-61.2628 -8.261769,-22.11882 -20.43478,-42.48628 -34.185116,-61.58597 -9.066558,-16.74523 -21.381639,-31.43921 -31.307022,-47.67182 -29.284511,-36.97629 -59.006421,-125.34613 -57.662041,-118.54941 -2.6438,9.86679 -0.50135,21.52572 -0.90138,32.29348 1.30438,31.22239 0.056,64.38428 15.71322,92.60024 12.98679,26.11697 29.0782,50.45929 45.404856,74.56302 14.631042,24.73432 26.300246,51.79637 30.774423,80.32025 0.352479,3.02725 0.545313,6.07417 0.545088,9.1223"
         style="fill:#55d400;stroke:#000000;stroke-width:10;stroke-dasharray:none"
         id="path3-1"
         sodipodi:nodetypes="cccccccccc" />
    </g>
  </g>
</svg>
