<?xml version="1.0" encoding="UTF-8" standalone="no"?>
<!-- Created with Inkscape (http://www.inkscape.org/) -->

<svg
   version="1.1"
   id="svg1"
   width="1920"
   height="1920"
   viewBox="0 0 1920 1920"
   sodipodi:docname="water.svg"
   inkscape:version="1.4.2 (1:1.4.2+202505120738+ebf0e940d0)"
   xmlns:inkscape="http://www.inkscape.org/namespaces/inkscape"
   xmlns:sodipodi="http://sodipodi.sourceforge.net/DTD/sodipodi-0.dtd"
   xmlns:xlink="http://www.w3.org/1999/xlink"
   xmlns="http://www.w3.org/2000/svg"
   xmlns:svg="http://www.w3.org/2000/svg">
  <defs
     id="defs1">
    <linearGradient
       id="swatch23"
       inkscape:swatch="solid">
      <stop
         style="stop-color:#6aa5ff;stop-opacity:1;"
         offset="0"
         id="stop23" />
    </linearGradient>
    <linearGradient
       id="linearGradient23-3"
       inkscape:collect="always">
      <stop
         style="stop-color:#0024dc;stop-opacity:1;"
         offset="0.29291674"
         id="stop24" />
      <stop
         style="stop-color:#42e6ff;stop-opacity:1;"
         offset="1"
         id="stop25" />
    </linearGradient>
    <linearGradient
       id="linearGradient27"
       inkscape:collect="always">
      <stop
         style="stop-color:#3276ff;stop-opacity:0;"
         offset="0"
         id="stop27" />
      <stop
         style="stop-color:#e6f0ff;stop-opacity:0.86449862;"
         offset="1"
         id="stop28" />
    </linearGradient>
    <linearGradient
       inkscape:collect="always"
       xlink:href="#linearGradient23-3"
       id="linearGradient1"
       gradientUnits="userSpaceOnUse"
       gradientTransform="matrix(0.94833608,0,0,0.94928766,1979.561,30.654149)"
       x1="466.14233"
       y1="939.59204"
       x2="1476.6412"
       y2="939.59204" />
    <linearGradient
       inkscape:collect="always"
       xlink:href="#linearGradient27"
       id="linearGradient2"
       gradientUnits="userSpaceOnUse"
       gradientTransform="matrix(1.1219822,0,0,0.95217278,1802.0363,41.519858)"
       x1="817.27887"
       y1="988.76208"
       x2="1431.5732"
       y2="988.76208" />
  </defs>
  <sodipodi:namedview
     id="namedview1"
     pagecolor="#ffffff"
     bordercolor="#000000"
     borderopacity="0.25"
     inkscape:showpageshadow="2"
     inkscape:pageopacity="0.0"
     inkscape:pagecheckerboard="0"
     inkscape:deskcolor="#d1d1d1"
     inkscape:zoom="0.157082"
     inkscape:cx="779.84747"
     inkscape:cy="1069.5051"
     inkscape:window-width="975"
     inkscape:window-height="607"
     inkscape:window-x="0"
     inkscape:window-y="556"
     inkscape:window-maximized="0"
     inkscape:current-layer="g2"
     showgrid="false"
     showguides="false" />
  <g
     inkscape:groupmode="layer"
     inkscape:label="Image"
     id="g1">
    <g
       id="g2">
      <g
         id="g4"
         transform="translate(0.00851142,-23.237287)">
        <g
           id="g3"
           transform="matrix(0.97433028,0,0,1.0654643,-1904.4036,-29.777443)"
           style="stroke-width:0.981471">
          <path
             id="rect3-9-4-5-9-7-6"
             style="fill:url(#linearGradient1);stroke:#000000;stroke-width:44.1662;stroke-dasharray:none"
             d="m 2831.3657,510.03607 c -50.528,83.35259 -129.2516,172.17587 -189.47,254.128 -142.6692,194.16082 -190.6155,278.24753 -198.1326,409.97703 -12.039,210.973 149.4461,438.4725 496.7462,438.4725 293.655,6.1326 493.573,-114.9223 496.0745,-438.4725 -7.5167,-131.7295 -55.4634,-215.81622 -198.1327,-409.97703 -60.2183,-81.95214 -138.9418,-170.77545 -189.4698,-254.128 -72.5128,-119.61903 -108.8078,-221.32432 -108.8078,-221.32432 0,0 -36.295,101.70531 -108.8078,221.32432 z"
             sodipodi:nodetypes="ssssssscs" />
          <path
             style="fill:url(#linearGradient2);fill-opacity:1;stroke:#000000;stroke-width:0;stroke-linecap:round;paint-order:markers fill stroke"
             d="m 2947.719,367.00556 c -22.3618,-61.87171 7.543,137.32021 32.8374,200.83451 44.5469,113.8159 96.396,197.06873 153.5113,290.52899 49.1983,80.50542 79.4237,158.02644 97.9796,243.53964 12.0749,55.6462 35.0623,179.8911 -36.1048,264.4223 -56.799,67.465 -107.2688,129.0606 -196.5559,151.2717 -89.2871,22.2111 -107.9324,44.2662 -178.1828,49.9323 -32.1408,2.5921 -133.8779,15.0905 -92.4082,24.6251 10.617,2.4414 47.2506,-20.5248 56.6455,-18.665 60.1379,11.9043 79.4725,12.9254 132.2608,16.3847 70.9182,4.6475 120.0194,-3.1629 180.042,-11.8172 58.846,-8.4846 105.5242,-30.5642 146.7689,-52.387 48.0209,-25.4081 87.3081,-67.524 115.7093,-116.3765 24.0966,-41.4481 38.6314,-85.7912 46.3365,-136.1627 7.0718,-46.2311 7.4077,-113.1745 3.3793,-140.2658 -7.2081,-48.4761 -22.4012,-88.6882 -32.6263,-111.754 -11.7782,-26.56929 -28.0649,-54.65711 -48.7196,-88.33708 -24.3316,-39.6755 -56.071,-84.32268 -82.2849,-120.36611 -52.1116,-71.65183 -116.4258,-144.06818 -165.1019,-214.03562 -64.843,-93.20587 -89.6834,-141.77703 -96.995,-157.88093 -9.6673,-21.29235 -24.9285,-41.49886 -36.4912,-73.4913 z"
             id="path2-7-3-3-7"
             sodipodi:nodetypes="ssssszsssssssssssssss" />
        </g>
      </g>
    </g>
  </g>
</svg>
